<?xml version="1.0" encoding="UTF-8"?>
<svg width="267px" height="796px" viewBox="0 0 267 796" version="1.1" xmlns="http://www.w3.org/2000/svg" xmlns:xlink="http://www.w3.org/1999/xlink">
    <defs></defs>
    <g id="Homepage" stroke="none" stroke-width="1" fill="none" fill-rule="evenodd">
        <g id="CodeFirst-v2---Homepage-(Mobile)" transform="translate(-26.000000, -3900.000000)">
            <g id="masters-of-agile-development" transform="translate(14.000000, 3422.000000)">
                <g id="scheme" transform="translate(13.000000, 478.000000)">
                    <g id="agile-development" transform="translate(0.000000, 274.000000)">
                        <polyline id="Stroke-1" stroke="#613FFF" stroke-width="2" stroke-linecap="round" stroke-linejoin="round" points="31.7049429 55.4993223 54.4304033 35.8757543 35.2669273 59.1468823"></polyline>
                        <polygon id="Stroke-3" stroke="#613FFF" stroke-width="2" stroke-linecap="round" stroke-linejoin="round" points="30.8574308 63.6626913 27.2954464 60.0143299 31.705103 55.4995627 35.2670874 59.1463212"></polygon>
                        <path d="M27.2957666,60.0146505 C27.2957666,60.0146505 22.026431,60.2855525 20.5944332,65.6571075 C19.1592337,71.0446922 16.8091244,73.4299127 16.8091244,73.4299127 C16.8091244,73.4299127 29.6522794,76.7440548 30.8577509,63.6630119" id="Stroke-4" stroke="#613FFF" stroke-width="2" stroke-linecap="round" stroke-linejoin="round"></path>
                        <ellipse id="Oval-Copy-17" stroke="#613FFF" stroke-width="2" opacity="0.200000003" cx="36.0200669" cy="55.066842" rx="36.0200669" ry="36.066842"></ellipse>
                        <path d="M17.6168365,5.27099609 C17.6168365,6.80290479 17.1915478,7.97403566 16.3409576,8.78442383 C15.4903675,9.59481199 14.265282,10 12.6656647,10 L10.0694733,10 L10.0694733,0.719726562 L12.9386139,0.719726562 C14.4155093,0.719726562 15.5644236,1.11750904 16.3853912,1.91308594 C17.2063589,2.70866283 17.6168365,3.82795502 17.6168365,5.27099609 Z M16.0172272,5.32177734 C16.0172272,3.10008655 14.9783378,1.98925781 12.900528,1.98925781 L11.5865631,1.98925781 L11.5865631,8.72412109 L12.6656647,8.72412109 C14.9000508,8.72412109 16.0172272,7.59001785 16.0172272,5.32177734 Z M25.8595123,10 L20.6100006,10 L20.6100006,0.719726562 L25.8595123,0.719726562 L25.8595123,2.00195312 L22.1270905,2.00195312 L22.1270905,4.52832031 L25.624649,4.52832031 L25.624649,5.79785156 L22.1270905,5.79785156 L22.1270905,8.71142578 L25.8595123,8.71142578 L25.8595123,10 Z M34.2164459,7.47998047 C34.2164459,8.30517991 33.9181091,8.95263437 33.3214264,9.42236328 C32.7247437,9.89209219 31.9016725,10.1269531 30.8521881,10.1269531 C29.8027037,10.1269531 28.9436628,9.96403158 28.2750397,9.63818359 L28.2750397,8.20361328 C28.6982189,8.4025075 29.14784,8.55908146 29.6239166,8.67333984 C30.0999932,8.78759823 30.5432668,8.84472656 30.9537506,8.84472656 C31.5546651,8.84472656 31.9979386,8.73046989 32.2835846,8.50195312 C32.5692306,8.27343636 32.7120514,7.96663604 32.7120514,7.58154297 C32.7120514,7.23453603 32.5808678,6.94043089 32.3184967,6.69921875 C32.0561256,6.45800661 31.5144644,6.17236493 30.6934967,5.84228516 C29.8471383,5.49951 29.2504646,5.10807512 28.9034576,4.66796875 C28.5564507,4.22786238 28.3829498,3.69889632 28.3829498,3.08105469 C28.3829498,2.30663675 28.6580122,1.69726785 29.2081451,1.25292969 C29.7582781,0.808591528 30.4967147,0.586425781 31.4234772,0.586425781 C32.3121535,0.586425781 33.1965848,0.781085293 34.0767975,1.17041016 L33.5943756,2.40820312 C32.7691762,2.06119618 32.0328554,1.88769531 31.3853912,1.88769531 C30.8945034,1.88769531 30.5221113,1.99454646 30.2682037,2.20825195 C30.0142962,2.42195745 29.8873444,2.70442533 29.8873444,3.05566406 C29.8873444,3.29687621 29.9381251,3.50317297 30.0396881,3.67456055 C30.1412511,3.84594812 30.3084044,4.00781174 30.541153,4.16015625 C30.7739015,4.31250076 31.1928426,4.51350787 31.7979889,4.76318359 C32.4793074,5.04671366 32.9786514,5.31119669 33.2960358,5.55664062 C33.6134202,5.80208456 33.8461652,6.07926278 33.994278,6.38818359 C34.1423907,6.69710441 34.2164459,7.06103306 34.2164459,7.47998047 Z M37.0128326,10 L37.0128326,0.719726562 L38.5299225,0.719726562 L38.5299225,10 L37.0128326,10 Z M45.7760162,4.96630859 L49.1910553,4.96630859 L49.1910553,9.62548828 C48.6324588,9.80745534 48.0960872,9.93652306 47.5819244,10.0126953 C47.0677617,10.0888676 46.5123473,10.1269531 45.9156647,10.1269531 C44.5107097,10.1269531 43.4273872,9.7111858 42.6656647,8.87963867 C41.9039421,8.04809155 41.5230865,6.87484481 41.5230865,5.35986328 C41.5230865,3.86604071 41.952607,2.69702571 42.8116608,1.8527832 C43.6707145,1.0085407 44.8534827,0.586425781 46.3600006,0.586425781 C47.329081,0.586425781 48.2473661,0.772621836 49.1148834,1.14501953 L48.5816803,2.40820312 C47.8284213,2.06119618 47.0751736,1.88769531 46.3219147,1.88769531 C45.3316753,1.88769531 44.5488056,2.19872736 43.9732819,2.82080078 C43.3977581,3.4428742 43.1100006,4.29345164 43.1100006,5.37255859 C43.1100006,6.50667885 43.369194,7.36889353 43.8875885,7.95922852 C44.405983,8.5495635 45.1518252,8.84472656 46.1251373,8.84472656 C46.6160252,8.84472656 47.1407595,8.7833665 47.6993561,8.66064453 L47.6993561,6.26757812 L45.7760162,6.26757812 L45.7760162,4.96630859 Z M60.150528,10 L58.2906647,10 L53.7266998,2.60498047 L53.6759186,2.60498047 L53.7076569,3.01757812 C53.7669019,3.80469144 53.796524,4.52408528 53.796524,5.17578125 L53.796524,10 L52.4190826,10 L52.4190826,0.719726562 L54.259903,0.719726562 L58.8111725,8.07666016 L58.8492584,8.07666016 C58.8407948,7.97932894 58.8238679,7.62492168 58.7984772,7.01342773 C58.7730864,6.40193379 58.7603912,5.9248064 58.7603912,5.58203125 L58.7603912,0.719726562 L60.150528,0.719726562 L60.150528,10 Z" id="DESIGN" fill="#613FFF"></path>
                        <path d="M126.967534,69.0134879 L126.199106,73.7646932 C126.199106,74.1109349 126.543298,74.3930577 126.967534,74.3930577 L138.777313,74.3930577 C139.20155,74.3930577 139.545741,74.1109349 139.545741,73.7646932 L138.775712,69.0134879" id="Stroke-1" stroke="#613FFF" stroke-width="2" stroke-linecap="round" stroke-linejoin="round"></path>
                        <path d="M148.680911,37.4787251 L117.061695,37.4787251 C115.608086,37.4787251 114.463448,38.6376729 114.463448,40.0931704 L114.463448,62.1035618 C114.463448,63.5606622 115.608086,64.7292279 117.061695,64.7292279 L148.680911,64.7292279 C150.137722,64.7292279 151.283961,63.5606622 151.283961,62.1035618 L151.283961,40.0931704 C151.283961,38.6376729 150.137722,37.4787251 148.680911,37.4787251 Z" id="Stroke-3" stroke="#613FFF" stroke-width="2" stroke-linecap="round" stroke-linejoin="round"></path>
                        <path d="M114.465529,59.9203156 L151.284441,59.9203156" id="Stroke-5" stroke="#613FFF" stroke-width="2" stroke-linecap="round" stroke-linejoin="round"></path>
                        <path d="M132.849371,50.0915402 C132.122566,50.0915402 131.531837,49.5000439 131.531837,48.7722952 C131.531837,48.0445465 132.122566,47.4530503 132.849371,47.4546533 C133.576176,47.4546533 134.166905,48.0445465 134.166905,48.7722952 C134.166905,49.5000439 133.576176,50.0915402 132.849371,50.0915402 Z" id="Stroke-7" stroke="#613FFF" stroke-width="2" stroke-linecap="round" stroke-linejoin="round"></path>
                        <path d="M138.475705,48.7782262 C138.475705,51.8895924 135.955901,54.4110654 132.84857,54.4110654 C129.741239,54.4110654 127.223036,51.8895924 127.223036,48.7782262 C127.223036,45.66686 129.741239,43.143784 132.84857,43.143784 C135.955901,43.143784 138.475705,45.66686 138.475705,48.7782262 Z" id="Stroke-9" stroke="#613FFF" stroke-width="2" stroke-linecap="round" stroke-linejoin="round"></path>
                        <path d="M132.073579,43.1444252 L132.073579,41.5238218" id="Stroke-11" stroke="#613FFF" stroke-width="2" stroke-linecap="round" stroke-linejoin="round"></path>
                        <path d="M132.073579,56.07543 L132.073579,54.4548266" id="Stroke-13" stroke="#613FFF" stroke-width="2" stroke-linecap="round" stroke-linejoin="round"></path>
                        <path d="M138.497317,48.6995203 L140.115819,48.6995203" id="Stroke-15" stroke="#613FFF" stroke-width="2" stroke-linecap="round" stroke-linejoin="round"></path>
                        <path d="M125.583083,48.6995203 L127.201584,48.6995203" id="Stroke-17" stroke="#613FFF" stroke-width="2" stroke-linecap="round" stroke-linejoin="round"></path>
                        <path d="M135.673184,43.9019892 L136.481634,42.4993898" id="Stroke-19" stroke="#613FFF" stroke-width="2" stroke-linecap="round" stroke-linejoin="round"></path>
                        <path d="M129.216147,55.1006635 L130.024597,53.6980641" id="Stroke-21" stroke="#613FFF" stroke-width="2" stroke-linecap="round" stroke-linejoin="round"></path>
                        <path d="M130.025077,43.9019892 L129.216627,42.4993898" id="Stroke-23" stroke="#613FFF" stroke-width="2" stroke-linecap="round" stroke-linejoin="round"></path>
                        <path d="M136.482275,55.1006635 L135.673824,53.6980641" id="Stroke-25" stroke="#613FFF" stroke-width="2" stroke-linecap="round" stroke-linejoin="round"></path>
                        <path d="M137.740576,51.6275067 L139.141356,52.437007" id="Stroke-27" stroke="#613FFF" stroke-width="2" stroke-linecap="round" stroke-linejoin="round"></path>
                        <path d="M126.556585,45.1620845 L127.957365,45.9715847" id="Stroke-29" stroke="#613FFF" stroke-width="2" stroke-linecap="round" stroke-linejoin="round"></path>
                        <path d="M137.740576,45.9720656 L139.141356,45.1625654" id="Stroke-31" stroke="#613FFF" stroke-width="2" stroke-linecap="round" stroke-linejoin="round"></path>
                        <path d="M126.556585,52.4376482 L127.957365,51.6281479" id="Stroke-33" stroke="#613FFF" stroke-width="2" stroke-linecap="round" stroke-linejoin="round"></path>
                        <ellipse id="Oval-Copy-14" stroke="#613FFF" stroke-width="2" opacity="0.200000003" cx="132.020067" cy="55.066842" rx="36.0200669" ry="36.066842"></ellipse>
                        <path d="M109.210312,5.27099609 C109.210312,6.80290479 108.785023,7.97403566 107.934433,8.78442383 C107.083843,9.59481199 105.858757,10 104.25914,10 L101.662949,10 L101.662949,0.719726562 L104.532089,0.719726562 C106.008985,0.719726562 107.157899,1.11750904 107.978867,1.91308594 C108.799834,2.70866283 109.210312,3.82795502 109.210312,5.27099609 Z M107.610703,5.32177734 C107.610703,3.10008655 106.571813,1.98925781 104.494003,1.98925781 L103.180038,1.98925781 L103.180038,8.72412109 L104.25914,8.72412109 C106.493526,8.72412109 107.610703,7.59001785 107.610703,5.32177734 Z M117.452988,10 L112.203476,10 L112.203476,0.719726562 L117.452988,0.719726562 L117.452988,2.00195312 L113.720566,2.00195312 L113.720566,4.52832031 L117.218124,4.52832031 L117.218124,5.79785156 L113.720566,5.79785156 L113.720566,8.71142578 L117.452988,8.71142578 L117.452988,10 Z M125.746445,0.719726562 L127.320663,0.719726562 L124.070663,10 L122.471054,10 L119.233749,0.719726562 L120.795273,0.719726562 L122.731308,6.48974609 C122.832871,6.76481257 122.94078,7.11921984 123.055038,7.55297852 C123.169297,7.98673719 123.243352,8.30940649 123.277206,8.52099609 C123.33222,8.1993799 123.416854,7.82698779 123.531113,7.40380859 C123.645371,6.98062939 123.738469,6.66748148 123.81041,6.46435547 L125.746445,0.719726562 Z M134.795273,10 L129.545761,10 L129.545761,0.719726562 L134.795273,0.719726562 L134.795273,2.00195312 L131.062851,2.00195312 L131.062851,4.52832031 L134.56041,4.52832031 L134.56041,5.79785156 L131.062851,5.79785156 L131.062851,8.71142578 L134.795273,8.71142578 L134.795273,10 Z M137.801132,10 L137.801132,0.719726562 L139.318222,0.719726562 L139.318222,8.69873047 L143.247421,8.69873047 L143.247421,10 L137.801132,10 Z M153.826035,5.34716797 C153.826035,6.85791771 153.448353,8.03222237 152.692978,8.87011719 C151.937603,9.708012 150.868034,10.1269531 149.484238,10.1269531 C148.083515,10.1269531 147.007598,9.7111858 146.256454,8.87963867 C145.505311,8.04809155 145.129745,6.86638136 145.129745,5.33447266 C145.129745,3.80256396 145.507427,2.62614343 146.262802,1.80517578 C147.018177,0.984208135 148.09621,0.573730469 149.496933,0.573730469 C150.876497,0.573730469 151.942893,0.990555728 152.696152,1.82421875 C153.449411,2.65788177 153.826035,3.83218644 153.826035,5.34716797 Z M146.74205,5.34716797 C146.74205,6.48975181 146.972679,7.35619822 147.433945,7.9465332 C147.89521,8.53686819 148.578634,8.83203125 149.484238,8.83203125 C150.385609,8.83203125 151.06586,8.54004198 151.525009,7.95605469 C151.984159,7.37206739 152.21373,6.50244718 152.21373,5.34716797 C152.21373,4.20881592 151.986274,3.34554331 151.531357,2.75732422 C151.076439,2.16910513 150.398305,1.875 149.496933,1.875 C148.587098,1.875 147.9005,2.16910513 147.437119,2.75732422 C146.973737,3.34554331 146.74205,4.20881592 146.74205,5.34716797 Z M162.96373,3.52539062 C162.96373,4.49447099 162.64635,5.23713935 162.011581,5.75341797 C161.376813,6.26969659 160.473339,6.52783203 159.301132,6.52783203 L158.336288,6.52783203 L158.336288,10 L156.819199,10 L156.819199,0.719726562 L159.491562,0.719726562 C160.651073,0.719726562 161.519635,0.956703359 162.097275,1.43066406 C162.674914,1.90462477 162.96373,2.60285997 162.96373,3.52539062 Z M158.336288,5.25195312 L159.142441,5.25195312 C159.921091,5.25195312 160.492374,5.11653781 160.856308,4.84570312 C161.220242,4.57486844 161.402206,4.15169559 161.402206,3.57617188 C161.402206,3.04296608 161.239285,2.6451836 160.913437,2.3828125 C160.587589,2.1204414 160.079781,1.98925781 159.389999,1.98925781 L158.336288,1.98925781 L158.336288,5.25195312 Z" id="DEVELOP" fill="#613FFF"></path>
                        <path d="M138.147807,163.311929 L118.150355,163.311929 C115.3182,163.311929 112.862876,165.590672 112.862876,168.4036 L112.862876,176.793362 C112.862876,179.606291 115.3182,181.907009 118.150355,181.907009 L119.622197,181.907009 L119.622197,186.890491 C119.622197,187.9876 120.725657,188.569119 121.535085,187.821935 L127.751971,181.907009 L138.147807,181.907009 C140.978273,181.907009 143.279822,179.606291 143.279822,176.793362 L143.279822,168.4036 C143.279822,165.590672 140.978273,163.311929 138.147807,163.311929 Z" id="Stroke-1" stroke="#613FFF" stroke-width="2" stroke-linecap="round" stroke-linejoin="round"></path>
                        <path d="M146.655631,172.128269 C149.19147,171.837176 151.284281,169.649777 151.284281,166.989564 L151.284281,160.471115 C151.284281,157.614036 148.764973,155.297076 145.956374,155.297076 L129.670137,155.297076 C127.026847,155.297076 125.114222,157.353231 124.869565,159.978109" id="Stroke-3" stroke="#613FFF" stroke-width="2" stroke-linecap="round" stroke-linejoin="round"></path>
                        <path d="M119.266444,175.33421 L136.075808,175.33421" id="Stroke-5" stroke="#613FFF" stroke-width="2" stroke-linecap="round" stroke-linejoin="round"></path>
                        <path d="M119.266444,170.525298 L136.075808,170.525298" id="Stroke-7" stroke="#613FFF" stroke-width="2" stroke-linecap="round" stroke-linejoin="round"></path>
                        <ellipse id="Oval-Copy-15" stroke="#613FFF" stroke-width="2" opacity="0.200000003" cx="132.020067" cy="171.066842" rx="36.0200669" ry="36.066842"></ellipse>
                        <path d="M100.85709,124 L99.3526955,124 L99.3526955,114.719727 L104.589512,114.719727 L104.589512,116.001953 L100.85709,116.001953 L100.85709,118.902832 L104.354649,118.902832 L104.354649,120.191406 L100.85709,120.191406 L100.85709,124 Z M112.521152,124 L107.271641,124 L107.271641,114.719727 L112.521152,114.719727 L112.521152,116.001953 L108.788731,116.001953 L108.788731,118.52832 L112.286289,118.52832 L112.286289,119.797852 L108.788731,119.797852 L108.788731,122.711426 L112.521152,122.711426 L112.521152,124 Z M120.776524,124 L115.527012,124 L115.527012,114.719727 L120.776524,114.719727 L120.776524,116.001953 L117.044102,116.001953 L117.044102,118.52832 L120.54166,118.52832 L120.54166,119.797852 L117.044102,119.797852 L117.044102,122.711426 L120.776524,122.711426 L120.776524,124 Z M131.329746,119.270996 C131.329746,120.802905 130.904458,121.974036 130.053867,122.784424 C129.203277,123.594812 127.978192,124 126.378574,124 L123.782383,124 L123.782383,114.719727 L126.651524,114.719727 C128.128419,114.719727 129.277333,115.117509 130.098301,115.913086 C130.919269,116.708663 131.329746,117.827955 131.329746,119.270996 Z M129.730137,119.321777 C129.730137,117.100087 128.691248,115.989258 126.613438,115.989258 L125.299473,115.989258 L125.299473,122.724121 L126.378574,122.724121 C128.612961,122.724121 129.730137,121.590018 129.730137,119.321777 Z M134.32291,114.719727 L137.077793,114.719727 C138.355794,114.719727 139.279369,114.905923 139.848545,115.27832 C140.417721,115.650718 140.702305,116.238928 140.702305,117.042969 C140.702305,117.584638 140.562658,118.035317 140.28336,118.39502 C140.004061,118.754722 139.602047,118.981119 139.077305,119.074219 L139.077305,119.137695 C139.729001,119.260417 140.208244,119.502684 140.515049,119.864502 C140.821854,120.22632 140.975254,120.716143 140.975254,121.333984 C140.975254,122.167647 140.684323,122.820392 140.102451,123.292236 C139.52058,123.764081 138.711262,124 137.674473,124 L134.32291,124 L134.32291,114.719727 Z M135.84,118.553711 L137.299961,118.553711 C137.93473,118.553711 138.398104,118.453207 138.690098,118.252197 C138.982091,118.051187 139.128086,117.709475 139.128086,117.227051 C139.128086,116.791176 138.970454,116.475912 138.655186,116.28125 C138.339917,116.086588 137.839515,115.989258 137.153965,115.989258 L135.84,115.989258 L135.84,118.553711 Z M135.84,119.785156 L135.84,122.724121 L137.452305,122.724121 C138.087074,122.724121 138.566317,122.602459 138.890049,122.359131 C139.213781,122.115803 139.375645,121.731773 139.375645,121.207031 C139.375645,120.724607 139.210607,120.367026 138.880527,120.134277 C138.550448,119.901529 138.048988,119.785156 137.376133,119.785156 L135.84,119.785156 Z M149.402012,124 L148.475254,121.422852 L144.926914,121.422852 L144.019199,124 L142.41959,124 L145.891758,114.681641 L147.542149,114.681641 L151.014317,124 L149.402012,124 Z M148.075352,120.115234 L147.205723,117.588867 C147.142246,117.419596 147.054438,117.152997 146.942295,116.789062 C146.830153,116.425128 146.752924,116.158529 146.710606,115.989258 C146.596347,116.509768 146.429194,117.078936 146.209141,117.696777 L145.37125,120.115234 L148.075352,120.115234 Z M156.927402,115.887695 C156.055653,115.887695 155.370113,116.196611 154.870762,116.814453 C154.37141,117.432295 154.121738,118.284988 154.121738,119.372559 C154.121738,120.510911 154.361889,121.372067 154.842197,121.956055 C155.322506,122.540042 156.017567,122.832031 156.927402,122.832031 C157.320959,122.832031 157.701815,122.792888 158.069981,122.7146 C158.438147,122.636311 158.821118,122.535808 159.218906,122.413086 L159.218906,123.714355 C158.491038,123.989422 157.665851,124.126953 156.74332,124.126953 C155.384915,124.126953 154.341794,123.715418 153.613926,122.892334 C152.886058,122.06925 152.522129,120.891772 152.522129,119.359863 C152.522129,118.395015 152.698804,117.550785 153.052158,116.827148 C153.405513,116.103512 153.916494,115.549156 154.585117,115.164062 C155.25374,114.778969 156.038726,114.586426 156.940098,114.586426 C157.888019,114.586426 158.763987,114.785317 159.568027,115.183105 L159.022129,116.446289 C158.708976,116.298176 158.377844,116.168051 158.028721,116.055908 C157.679598,115.943766 157.312496,115.887695 156.927402,115.887695 Z M169.302402,124 L167.544102,124 L164.630527,119.797852 L163.735508,120.527832 L163.735508,124 L162.218418,124 L162.218418,114.719727 L163.735508,114.719727 L163.735508,119.150391 C164.150224,118.642576 164.562817,118.153811 164.973301,117.684082 L167.480625,114.719727 L169.207188,114.719727 C167.586411,116.624033 166.424802,117.980302 165.722324,118.788574 L169.302402,124 Z" id="FEEDBACK" fill="#613FFF"></path>
                        <path d="M232.202294,40.0073776 L230.274555,40.0073776 L230.274555,38.9375507 C230.274555,37.6891512 229.23155,36.6772397 227.94639,36.6772397 L226.776769,36.6772397 C225.491609,36.6772397 224.448604,37.6891512 224.448604,38.9375507 L224.448604,40.0073776 L222.443312,40.0073776 C219.372857,40.0073776 219.325376,44.6920935 222.443312,44.6920935 L232.202294,44.6920935 C235.310734,44.6920935 235.302821,40.0073776 232.202294,40.0073776 Z" id="Stroke-1" stroke="#613FFF" stroke-width="2" stroke-linecap="round" stroke-linejoin="round"></path>
                        <polyline id="Stroke-3" stroke="#613FFF" stroke-width="2" stroke-linecap="round" stroke-linejoin="round" points="237.698422 41.4861519 240.934225 41.4861519 240.934225 73.5455671 213.719064 73.5455671 213.719064 41.4861519 216.923003 41.4861519"></polyline>
                        <polyline id="Stroke-5" stroke="#613FFF" stroke-width="2" stroke-linecap="round" stroke-linejoin="round" points="221.723523 60.2087819 225.744 64.7292279 234.530658 53.5084326"></polyline>
                        <ellipse id="Oval-Copy-13" stroke="#613FFF" stroke-width="2" opacity="0.200000003" cx="228.020067" cy="55.066842" rx="36.0200669" ry="36.066842"></ellipse>
                        <path d="M215.982315,10 L214.465225,10 L214.465225,2.02099609 L211.735733,2.02099609 L211.735733,0.719726562 L218.711807,0.719726562 L218.711807,2.02099609 L215.982315,2.02099609 L215.982315,10 Z M226.383194,10 L221.133682,10 L221.133682,0.719726562 L226.383194,0.719726562 L226.383194,2.00195312 L222.650772,2.00195312 L222.650772,4.52832031 L226.148331,4.52832031 L226.148331,5.79785156 L222.650772,5.79785156 L222.650772,8.71142578 L226.383194,8.71142578 L226.383194,10 Z M234.740128,7.47998047 C234.740128,8.30517991 234.441791,8.95263437 233.845108,9.42236328 C233.248425,9.89209219 232.425354,10.1269531 231.37587,10.1269531 C230.326385,10.1269531 229.467344,9.96403158 228.798721,9.63818359 L228.798721,8.20361328 C229.221901,8.4025075 229.671522,8.55908146 230.147598,8.67333984 C230.623675,8.78759823 231.066948,8.84472656 231.477432,8.84472656 C232.078347,8.84472656 232.52162,8.73046989 232.807266,8.50195312 C233.092912,8.27343636 233.235733,7.96663604 233.235733,7.58154297 C233.235733,7.23453603 233.104549,6.94043089 232.842178,6.69921875 C232.579807,6.45800661 232.038146,6.17236493 231.217178,5.84228516 C230.37082,5.49951 229.774146,5.10807512 229.427139,4.66796875 C229.080132,4.22786238 228.906631,3.69889632 228.906631,3.08105469 C228.906631,2.30663675 229.181694,1.69726785 229.731827,1.25292969 C230.28196,0.808591528 231.020396,0.586425781 231.947159,0.586425781 C232.835835,0.586425781 233.720266,0.781085293 234.600479,1.17041016 L234.118057,2.40820312 C233.292858,2.06119618 232.556537,1.88769531 231.909073,1.88769531 C231.418185,1.88769531 231.045793,1.99454646 230.791885,2.20825195 C230.537978,2.42195745 230.411026,2.70442533 230.411026,3.05566406 C230.411026,3.29687621 230.461807,3.50317297 230.56337,3.67456055 C230.664933,3.84594812 230.832086,4.00781174 231.064835,4.16015625 C231.297583,4.31250076 231.716524,4.51350787 232.321671,4.76318359 C233.002989,5.04671366 233.502333,5.31119669 233.819717,5.55664062 C234.137102,5.80208456 234.369847,6.07926278 234.51796,6.38818359 C234.666072,6.69710441 234.740128,7.06103306 234.740128,7.47998047 Z M240.742081,10 L239.224991,10 L239.224991,2.02099609 L236.495499,2.02099609 L236.495499,0.719726562 L243.471573,0.719726562 L243.471573,2.02099609 L240.742081,2.02099609 L240.742081,10 Z" id="TEST" fill="#613FFF"></path>
                        <polyline id="Path-7-Copy-2" stroke="#DEE3EA" stroke-width="2" stroke-linejoin="bevel" stroke-dasharray="9,4" points="34.419175 95.1856723 34.419175 168.120842 90.4503902 168.120842"></polyline>
                        <polyline id="Path-7-Copy-3" stroke="#DEE3EA" stroke-width="2" stroke-linejoin="bevel" stroke-dasharray="9,4" transform="translate(202.112598, 132.855485) scale(-1, 1) translate(-202.112598, -132.855485) " points="172.095875 95.9871577 172.095875 169.723812 232.12932 169.723812"></polyline>
                        <path d="M80.845039,55.1114034 C80.845039,55.1114034 84.0468227,55.1114034 90.4503902,55.1114034" id="Path-8-Copy-2" stroke="#613FFF" stroke-width="2" stroke-linejoin="bevel" stroke-dasharray="9,4"></path>
                        <path d="M176.098105,55.1114034 C176.098105,55.1114034 179.299889,55.1114034 185.703456,55.1114034" id="Path-8-Copy-3" stroke="#613FFF" stroke-width="2" stroke-linejoin="bevel" stroke-dasharray="9,4"></path>
                    </g>
                    <path d="M44.4882812,7.98144531 L46.1904297,7.98144531 C47.332037,7.98144531 48.1591771,7.76953337 48.671875,7.34570312 C49.1845729,6.92187288 49.440918,6.29297292 49.440918,5.45898438 C49.440918,4.61132389 49.1640653,4.00293153 48.6103516,3.63378906 C48.0566379,3.26464659 47.2226618,3.08007813 46.1083984,3.08007813 L44.4882812,3.08007813 L44.4882812,7.98144531 Z M44.4882812,10.0117188 L44.4882812,16 L42.0375977,16 L42.0375977,1.00878906 L46.2724609,1.00878906 C48.2070409,1.00878906 49.6391555,1.37109013 50.5688477,2.09570312 C51.4985398,2.82031612 51.9633789,3.91405519 51.9633789,5.37695312 C51.9633789,7.24317339 50.9926855,8.57274994 49.0512695,9.36572266 L53.2861328,16 L50.4970703,16 L46.9082031,10.0117188 L44.4882812,10.0117188 Z M63.9399414,16 L55.4599609,16 L55.4599609,1.00878906 L63.9399414,1.00878906 L63.9399414,3.08007812 L57.9106445,3.08007812 L57.9106445,7.16113281 L63.5605469,7.16113281 L63.5605469,9.21191406 L57.9106445,9.21191406 L57.9106445,13.918457 L63.9399414,13.918457 L63.9399414,16 Z M75.8242188,11.9291992 C75.8242188,13.2622137 75.34229,14.3081017 74.378418,15.0668945 C73.414546,15.8256874 72.0849694,16.2050781 70.3896484,16.2050781 C68.6943275,16.2050781 67.306646,15.9418972 66.2265625,15.4155273 L66.2265625,13.0981445 C66.9101597,13.4194352 67.6364708,13.6723624 68.4055176,13.8569336 C69.1745644,14.0415048 69.8906217,14.1337891 70.5537109,14.1337891 C71.5244189,14.1337891 72.2404762,13.9492206 72.7019043,13.5800781 C73.1633324,13.2109357 73.394043,12.7153351 73.394043,12.0932617 C73.394043,11.532712 73.182131,11.0576191 72.7583008,10.6679688 C72.3344705,10.2783184 71.4594793,9.8168972 70.1333008,9.28369141 C68.7661064,8.7299777 67.8022489,8.0976598 67.2416992,7.38671875 C66.6811495,6.6757777 66.4008789,5.82129405 66.4008789,4.82324219 C66.4008789,3.57225937 66.8452104,2.58789421 67.7338867,1.87011719 C68.622563,1.15234016 69.8154222,0.793457031 71.3125,0.793457031 C72.7480541,0.793457031 74.1767507,1.10790701 75.5986328,1.73681641 L74.8193359,3.73632812 C73.4863215,3.17577845 72.2968802,2.89550781 71.2509766,2.89550781 C70.4580038,2.89550781 69.8564474,3.06811351 69.4462891,3.41333008 C69.0361308,3.75854665 68.8310547,4.21484091 68.8310547,4.78222656 C68.8310547,5.17187695 68.9130851,5.50512557 69.0771484,5.78198242 C69.2412118,6.05883927 69.5112286,6.32031127 69.887207,6.56640625 C70.2631855,6.81250123 70.9399365,7.13720501 71.9174805,7.54052734 C73.0180719,7.99853745 73.8247045,8.42577927 74.3374023,8.82226562 C74.8501002,9.21875198 75.226073,9.66650141 75.465332,10.1655273 C75.704591,10.6645533 75.8242188,11.252438 75.8242188,11.9291992 Z M87.2060547,16 L78.7260742,16 L78.7260742,1.00878906 L87.2060547,1.00878906 L87.2060547,3.08007812 L81.1767578,3.08007812 L81.1767578,7.16113281 L86.8266602,7.16113281 L86.8266602,9.21191406 L81.1767578,9.21191406 L81.1767578,13.918457 L87.2060547,13.918457 L87.2060547,16 Z M99.746582,16 L98.2495117,11.8369141 L92.5175781,11.8369141 L91.0512695,16 L88.4672852,16 L94.0761719,0.947265625 L96.7421875,0.947265625 L102.351074,16 L99.746582,16 Z M97.6035156,9.72460938 L96.1987305,5.64355469 C96.0961909,5.37011582 95.9543466,4.93945606 95.7731934,4.3515625 C95.5920401,3.76366894 95.4672855,3.33300918 95.3989258,3.05957031 C95.2143545,3.90039483 94.9443377,4.81981923 94.5888672,5.81787109 L93.2353516,9.72460938 L97.6035156,9.72460938 Z M106.780762,7.98144531 L108.48291,7.98144531 C109.624517,7.98144531 110.451658,7.76953337 110.964355,7.34570312 C111.477053,6.92187288 111.733398,6.29297292 111.733398,5.45898438 C111.733398,4.61132389 111.456546,4.00293153 110.902832,3.63378906 C110.349118,3.26464659 109.515142,3.08007813 108.400879,3.08007813 L106.780762,3.08007813 L106.780762,7.98144531 Z M106.780762,10.0117188 L106.780762,16 L104.330078,16 L104.330078,1.00878906 L108.564941,1.00878906 C110.499521,1.00878906 111.931636,1.37109013 112.861328,2.09570312 C113.79102,2.82031612 114.255859,3.91405519 114.255859,5.37695312 C114.255859,7.24317339 113.285166,8.57274994 111.34375,9.36572266 L115.578613,16 L112.789551,16 L109.200684,10.0117188 L106.780762,10.0117188 Z M124.130371,2.89550781 C122.722161,2.89550781 121.61475,3.39452626 120.808105,4.39257812 C120.001461,5.39062999 119.598145,6.76805762 119.598145,8.52490234 C119.598145,10.3637787 119.98608,11.7548781 120.761963,12.6982422 C121.537846,13.6416063 122.660637,14.1132812 124.130371,14.1132812 C124.766116,14.1132812 125.381345,14.0500495 125.976074,13.923584 C126.570804,13.7971185 127.18945,13.6347666 127.832031,13.4365234 L127.832031,15.5385742 C126.656244,15.9829124 125.32325,16.2050781 123.833008,16.2050781 C121.638661,16.2050781 119.953619,15.5402899 118.777832,14.2106934 C117.602045,12.8810969 117.01416,10.9790163 117.01416,8.50439453 C117.01416,6.94579299 117.299558,5.58203709 117.870361,4.41308594 C118.441165,3.24413478 119.266596,2.34863592 120.34668,1.7265625 C121.426763,1.10448908 122.694817,0.793457031 124.150879,0.793457031 C125.682137,0.793457031 127.097161,1.11474288 128.395996,1.75732422 L127.51416,3.79785156 C127.008298,3.55859255 126.473391,3.34838958 125.909424,3.16723633 C125.345456,2.98608308 124.752445,2.89550781 124.130371,2.89550781 Z M142.884766,16 L140.423828,16 L140.423828,9.24267578 L133.512695,9.24267578 L133.512695,16 L131.062012,16 L131.062012,1.00878906 L133.512695,1.00878906 L133.512695,7.140625 L140.423828,7.140625 L140.423828,1.00878906 L142.884766,1.00878906 L142.884766,16 Z M154.933105,4.23876953 C154.933105,4.66943575 155.047606,5.07616996 155.276611,5.45898437 C155.505616,5.84179879 155.825193,6.248533 156.235352,6.67919922 C157.007816,6.24169703 157.549559,5.83325385 157.860596,5.45385742 C158.171632,5.07446099 158.327148,4.64892814 158.327148,4.17724609 C158.327148,3.73290793 158.178468,3.37744274 157.881104,3.11083984 C157.583739,2.84423695 157.188967,2.7109375 156.696777,2.7109375 C156.156736,2.7109375 155.727785,2.84936385 155.409912,3.1262207 C155.092039,3.40307756 154.933105,3.77392346 154.933105,4.23876953 Z M156.460938,14.1337891 C157.71192,14.1337891 158.781734,13.7680701 159.67041,13.0366211 L155.743164,9.17089844 C155.018551,9.63574451 154.519533,10.0715312 154.246094,10.4782715 C153.972655,10.8850118 153.835938,11.3481419 153.835938,11.8676758 C153.835938,12.537601 154.073484,13.0827616 154.548584,13.5031738 C155.023684,13.9235861 155.661129,14.1337891 156.460938,14.1337891 Z M151.292969,12.0317383 C151.292969,11.136226 151.511717,10.3552279 151.949219,9.6887207 C152.386721,9.02221346 153.176264,8.36084312 154.317871,7.70458984 C153.668454,6.94579699 153.225831,6.30493426 152.98999,5.78198242 C152.754149,5.25903059 152.63623,4.71728796 152.63623,4.15673828 C152.63623,3.11767059 153.007076,2.29736629 153.748779,1.69580078 C154.490482,1.09423527 155.48681,0.793457031 156.737793,0.793457031 C157.94776,0.793457031 158.897946,1.08569044 159.588379,1.67016602 C160.278812,2.25464159 160.624023,3.04247551 160.624023,4.03369141 C160.624023,4.81299218 160.393313,5.52050463 159.931885,6.15625 C159.470457,6.79199537 158.699712,7.4277312 157.619629,8.06347656 L161.16748,11.4882812 C161.721194,10.7568323 162.182615,9.68360083 162.551758,8.26855469 L165.033203,8.26855469 C164.554685,10.2099706 163.789068,11.7924744 162.736328,13.0161133 L165.822754,16 L162.71582,16 L161.187988,14.5131836 C160.490719,15.0737333 159.747318,15.4958482 158.957764,15.779541 C158.168209,16.0632338 157.294927,16.2050781 156.337891,16.2050781 C154.765617,16.2050781 153.531743,15.8325233 152.63623,15.0874023 C151.740718,14.3422814 151.292969,13.3237369 151.292969,12.0317383 Z M183.213379,5.54101562 C183.213379,7.10645314 182.700689,8.30614817 181.675293,9.14013672 C180.649897,9.97412526 179.190439,10.3911133 177.296875,10.3911133 L175.738281,10.3911133 L175.738281,16 L173.287598,16 L173.287598,1.00878906 L177.604492,1.00878906 C179.477548,1.00878906 180.880611,1.39159773 181.813721,2.15722656 C182.746831,2.92285539 183.213379,4.0507738 183.213379,5.54101562 Z M175.738281,8.33007812 L177.040527,8.33007812 C178.298346,8.33007812 179.221188,8.11133031 179.809082,7.67382812 C180.396976,7.23632594 180.690918,6.55273902 180.690918,5.62304688 C180.690918,4.76171444 180.427737,4.11914274 179.901367,3.6953125 C179.374997,3.27148226 178.554693,3.05957031 177.44043,3.05957031 L175.738281,3.05957031 L175.738281,8.33007812 Z M186.20752,16 L186.20752,1.00878906 L188.658203,1.00878906 L188.658203,13.8979492 L195.005371,13.8979492 L195.005371,16 L186.20752,16 Z M206.889648,16 L205.392578,11.8369141 L199.660645,11.8369141 L198.194336,16 L195.610352,16 L201.219238,0.947265625 L203.885254,0.947265625 L209.494141,16 L206.889648,16 Z M204.746582,9.72460938 L203.341797,5.64355469 C203.239257,5.37011582 203.097413,4.93945606 202.91626,4.3515625 C202.735107,3.76366894 202.610352,3.33300918 202.541992,3.05957031 C202.357421,3.90039483 202.087404,4.81981923 201.731934,5.81787109 L200.378418,9.72460938 L204.746582,9.72460938 Z M223.962402,16 L220.958008,16 L213.585449,4.05419922 L213.503418,4.05419922 L213.554688,4.72070312 C213.650391,5.99219386 213.698242,7.15429161 213.698242,8.20703125 L213.698242,16 L211.473145,16 L211.473145,1.00878906 L214.446777,1.00878906 L221.798828,12.8930664 L221.860352,12.8930664 C221.84668,12.7358391 221.819336,12.163335 221.77832,11.1755371 C221.737304,10.1877392 221.716797,9.41699496 221.716797,8.86328125 L221.716797,1.00878906 L223.962402,1.00878906 L223.962402,16 Z" id="RESEARCH-&amp;-PLAN" fill="#2D80F3"></path>
                    <path d="M36.1416016,229 L34.6445312,224.836914 L28.9125977,224.836914 L27.4462891,229 L24.8623047,229 L30.4711914,213.947266 L33.137207,213.947266 L38.7460938,229 L36.1416016,229 Z M33.9985352,222.724609 L32.59375,218.643555 C32.4912104,218.370116 32.3493661,217.939456 32.1682129,217.351562 C31.9870596,216.763669 31.862305,216.333009 31.7939453,216.05957 C31.6093741,216.900395 31.3393572,217.819819 30.9838867,218.817871 L29.6303711,222.724609 L33.9985352,222.724609 Z M46.8569336,220.868652 L52.3735352,220.868652 L52.3735352,228.39502 C51.4711869,228.688966 50.6047405,228.89746 49.7741699,229.020508 C48.9435994,229.143555 48.0463915,229.205078 47.0825195,229.205078 C44.8129769,229.205078 43.0629944,228.533454 41.8325195,227.190186 C40.6020446,225.846917 39.9868164,223.951672 39.9868164,221.504395 C39.9868164,219.091297 40.6806571,217.202888 42.0683594,215.839111 C43.4560616,214.475335 45.3666871,213.793457 47.800293,213.793457 C49.3657305,213.793457 50.8491141,214.094235 52.2504883,214.695801 L51.3891602,216.736328 C50.1723572,216.175778 48.9555725,215.895508 47.7387695,215.895508 C46.1391522,215.895508 44.8745164,216.397944 43.9448242,217.402832 C43.0151321,218.40772 42.550293,219.78173 42.550293,221.524902 C42.550293,223.356943 42.96899,224.749751 43.8063965,225.703369 C44.643803,226.656987 45.848625,227.133789 47.4208984,227.133789 C48.2138712,227.133789 49.0615189,227.034669 49.9638672,226.836426 L49.9638672,222.970703 L46.8569336,222.970703 L46.8569336,220.868652 Z M55.9726562,229 L55.9726562,214.008789 L58.4233398,214.008789 L58.4233398,229 L55.9726562,229 Z M62.3813477,229 L62.3813477,214.008789 L64.8320312,214.008789 L64.8320312,226.897949 L71.1791992,226.897949 L71.1791992,229 L62.3813477,229 Z M82.2431641,229 L73.7631836,229 L73.7631836,214.008789 L82.2431641,214.008789 L82.2431641,216.080078 L76.2138672,216.080078 L76.2138672,220.161133 L81.8637695,220.161133 L81.8637695,222.211914 L76.2138672,222.211914 L76.2138672,226.918457 L82.2431641,226.918457 L82.2431641,229 Z M103.130371,221.36084 C103.130371,223.835462 102.443366,225.727288 101.069336,227.036377 C99.6953056,228.345466 97.7163215,229 95.1323242,229 L90.9384766,229 L90.9384766,214.008789 L95.5732422,214.008789 C97.9589963,214.008789 99.8149348,214.651361 101.141113,215.936523 C102.467292,217.221686 103.130371,219.029774 103.130371,221.36084 Z M100.546387,221.442871 C100.546387,217.853986 98.8681808,216.05957 95.5117188,216.05957 L93.3891602,216.05957 L93.3891602,226.938965 L95.1323242,226.938965 C98.7417173,226.938965 100.546387,225.106952 100.546387,221.442871 Z M114.830078,229 L106.350098,229 L106.350098,214.008789 L114.830078,214.008789 L114.830078,216.080078 L108.800781,216.080078 L108.800781,220.161133 L114.450684,220.161133 L114.450684,222.211914 L108.800781,222.211914 L108.800781,226.918457 L114.830078,226.918457 L114.830078,229 Z M126.611816,214.008789 L129.154785,214.008789 L123.904785,229 L121.320801,229 L116.091309,214.008789 L118.61377,214.008789 L121.741211,223.32959 C121.905274,223.773928 122.079589,224.346432 122.26416,225.047119 C122.448731,225.747806 122.568359,226.269041 122.623047,226.61084 C122.711915,226.091306 122.848632,225.48975 123.033203,224.806152 C123.217774,224.122555 123.368163,223.616701 123.484375,223.288574 L126.611816,214.008789 Z M139.61377,229 L131.133789,229 L131.133789,214.008789 L139.61377,214.008789 L139.61377,216.080078 L133.584473,216.080078 L133.584473,220.161133 L139.234375,220.161133 L139.234375,222.211914 L133.584473,222.211914 L133.584473,226.918457 L139.61377,226.918457 L139.61377,229 Z M142.854004,229 L142.854004,214.008789 L145.304688,214.008789 L145.304688,226.897949 L151.651855,226.897949 L151.651855,229 L142.854004,229 Z M167.54541,221.483887 C167.54541,223.924329 166.935309,225.821282 165.715088,227.174805 C164.494867,228.528327 162.767101,229.205078 160.531738,229.205078 C158.269032,229.205078 156.531012,228.533454 155.317627,227.190186 C154.104242,225.846917 153.497559,223.938001 153.497559,221.463379 C153.497559,218.988757 154.10766,217.088386 155.327881,215.762207 C156.548102,214.436029 158.289539,213.772949 160.552246,213.772949 C162.780773,213.772949 164.503412,214.446282 165.720215,215.792969 C166.937018,217.139655 167.54541,219.036609 167.54541,221.483887 Z M156.102051,221.483887 C156.102051,223.329599 156.474606,224.729243 157.219727,225.682861 C157.964847,226.636479 159.06884,227.113281 160.531738,227.113281 C161.9878,227.113281 163.086666,226.641606 163.828369,225.698242 C164.570072,224.754878 164.940918,223.350107 164.940918,221.483887 C164.940918,219.64501 164.57349,218.250493 163.838623,217.300293 C163.103756,216.350093 162.008308,215.875 160.552246,215.875 C159.082512,215.875 157.973392,216.350093 157.224854,217.300293 C156.476315,218.250493 156.102051,219.64501 156.102051,221.483887 Z M180.690918,218.541016 C180.690918,220.106453 180.178228,221.306148 179.152832,222.140137 C178.127436,222.974125 176.667978,223.391113 174.774414,223.391113 L173.21582,223.391113 L173.21582,229 L170.765137,229 L170.765137,214.008789 L175.082031,214.008789 C176.955087,214.008789 178.35815,214.391598 179.29126,215.157227 C180.22437,215.922855 180.690918,217.050774 180.690918,218.541016 Z M173.21582,221.330078 L174.518066,221.330078 C175.775885,221.330078 176.698728,221.11133 177.286621,220.673828 C177.874515,220.236326 178.168457,219.552739 178.168457,218.623047 C178.168457,217.761714 177.905276,217.119143 177.378906,216.695312 C176.852536,216.271482 176.032232,216.05957 174.917969,216.05957 L173.21582,216.05957 L173.21582,221.330078 Z M190.165527,229 L185.817871,216.47998 L185.73584,216.47998 C185.852051,218.339365 185.910156,220.082511 185.910156,221.709473 L185.910156,229 L183.685059,229 L183.685059,214.008789 L187.140625,214.008789 L191.303711,225.934082 L191.365234,225.934082 L195.651367,214.008789 L199.117188,214.008789 L199.117188,229 L196.758789,229 L196.758789,221.586426 C196.758789,220.841305 196.777588,219.870611 196.815186,218.674316 C196.852783,217.478021 196.885254,216.753419 196.912598,216.500488 L196.830566,216.500488 L192.329102,229 L190.165527,229 Z M211.544922,229 L203.064941,229 L203.064941,214.008789 L211.544922,214.008789 L211.544922,216.080078 L205.515625,216.080078 L205.515625,220.161133 L211.165527,220.161133 L211.165527,222.211914 L205.515625,222.211914 L205.515625,226.918457 L211.544922,226.918457 L211.544922,229 Z M227.274414,229 L224.27002,229 L216.897461,217.054199 L216.81543,217.054199 L216.866699,217.720703 C216.962403,218.992194 217.010254,220.154292 217.010254,221.207031 L217.010254,229 L214.785156,229 L214.785156,214.008789 L217.758789,214.008789 L225.11084,225.893066 L225.172363,225.893066 C225.158691,225.735839 225.131348,225.163335 225.090332,224.175537 C225.049316,223.187739 225.028809,222.416995 225.028809,221.863281 L225.028809,214.008789 L227.274414,214.008789 L227.274414,229 Z M236.410645,229 L233.959961,229 L233.959961,216.11084 L229.550781,216.11084 L229.550781,214.008789 L240.819824,214.008789 L240.819824,216.11084 L236.410645,216.11084 L236.410645,229 Z" id="AGILE-DEVELOPMENT-Copy" fill="#613FFF"></path>
                    <g id="research-&amp;-plan" transform="translate(80.000000, 56.000000)" stroke="#2D80F3" stroke-width="2">
                        <ellipse id="Oval-Copy-11" opacity="0.200000003" cx="52.0289855" cy="52.0965496" rx="52.0289855" ry="52.0965496"></ellipse>
                        <path d="M33.3644114,44.5840668 L39.6818509,38.1151181" id="Stroke-1" stroke-linecap="round" stroke-linejoin="round"></path>
                        <path d="M36.8291576,48.1316976 L39.3563255,45.5445028" id="Stroke-2" stroke-linecap="round" stroke-linejoin="round"></path>
                        <path d="M56.0234348,67.7836061 L58.5506027,65.1964113" id="Stroke-3" stroke-linecap="round" stroke-linejoin="round"></path>
                        <path d="M59.6348548,71.4813711 L65.9532548,65.0124223" id="Stroke-4" stroke-linecap="round" stroke-linejoin="round"></path>
                        <path d="M34.9955922,59.5163165 C34.8688015,59.6461571 29.8605714,72.6994686 29.8605714,72.6994686 C29.4312122,73.7593529 30.5857754,75.0596827 31.7067199,74.5903329 C31.7067199,74.5903329 44.5221794,69.5275101 44.6489701,69.3976694" id="Stroke-5" stroke-linecap="round" stroke-linejoin="round"></path>
                        <path d="M31.80748,67.6392426 L36.6745115,72.6222375" id="Stroke-7" stroke-linecap="round" stroke-linejoin="round"></path>
                        <path d="M72.4828764,35.2566044 L67.9933353,30.6602461 C66.6418624,29.2762411 64.4508818,29.2762411 63.0994089,30.6602461 L34.9557299,59.4742866 L44.6897928,69.4393146 L72.4828764,40.9830572 C74.0274169,39.4018868 74.0274169,36.8377748 72.4828764,35.2566044 Z" id="Stroke-9" stroke-linecap="round" stroke-linejoin="round"></path>
                        <polyline id="Stroke-11" stroke-linecap="round" stroke-linejoin="round" points="50.4238993 38.4709776 41.1873936 29.0137707 29.6167876 40.861007 38.8532933 50.3172521"></polyline>
                        <polyline id="Stroke-13" stroke-linecap="round" stroke-linejoin="round" points="53.6561 65.4733085 63.1913321 75.2354004 74.7619381 63.3891259 65.226706 53.6260722"></polyline>
                        <path d="M40.5179967,65.1684235 L63.460378,41.6788106" id="Stroke-15" stroke-linecap="round" stroke-linejoin="round"></path>
                    </g>
                    <g id="product-launch" transform="translate(81.000000, 590.000000)">
                        <g stroke="#FFBF3B" stroke-width="2">
                            <path d="M67.8827407,65.2784261 L68.1741502,44.6733014 C68.1741502,42.8583532 66.5768755,40.9467757 65.930516,40.2451637 C65.7837157,40.0855155 65.5405093,40.0855155 65.393709,40.2451637 C64.7451584,40.9467757 63.1500747,42.8583532 63.1500747,44.6733014 L63.3187855,55.7520483" id="Stroke-1" stroke-linecap="round" stroke-linejoin="round"></path>
                            <path d="M40.8732406,55.833973 L41.0441424,44.6754021 C41.0441424,42.8604538 39.4468676,40.9467757 38.8005082,40.2451637 C38.6537079,40.0855155 38.4105014,40.0855155 38.2637011,40.2451637 C37.6151506,40.9467757 36.0200669,42.8604538 36.0200669,44.6754021 L36.3092854,65.2784261" id="Stroke-3" stroke-linecap="round" stroke-linejoin="round"></path>
                            <path d="M58.8360066,49.180507 L59.1308143,39.5467671 C59.1308143,34.9611155 54.6619358,30.1259632 52.84836,28.3536475 C52.4376623,27.9514351 51.7565548,27.9514351 51.3458572,28.3536475 C49.5322813,30.1259632 45.0634028,34.9611155 45.0634028,39.5467671 L45.3541442,49.180507" id="Stroke-5" stroke-linecap="round" stroke-linejoin="round"></path>
                            <path d="M48.0778481,50.2495095 C48.0778481,50.2495095 48.3396739,54.1210769 44.5596629,57.113714 C40.7796519,60.106351 41.0483034,62.3751677 41.0483034,62.3751677 L48.0778481,63.234745 L48.0778481,50.2495095 Z" id="Stroke-7" stroke-linecap="round" stroke-linejoin="round"></path>
                            <path d="M55.1115539,50.186627 C55.1115539,50.186627 55.8545433,54.1210769 59.6345542,57.113714 C63.4145652,60.106351 63.1459137,62.3751677 63.1459137,62.3751677 L55.1115539,63.2661862" id="Stroke-9" stroke-linecap="round" stroke-linejoin="round"></path>
                            <path d="M53.0391227,43.2066699 C52.842179,42.9370297 51.9752747,43.2066699 51.5633005,43.2066699 C51.1513263,43.2066699 50.2822898,42.9370297 50.0873557,43.2066699 L53.0391227,43.2066699 Z" id="Stroke-11" stroke-linecap="round" stroke-linejoin="round"></path>
                            <path d="M40.0393273,69.8789024 C40.0393273,70.7526988 39.3645376,75.3396256 38.5321047,75.3396256 C37.6996717,75.3396256 37.024882,70.7526988 37.024882,69.8789024 C37.024882,69.0051059 37.6996717,68.296786 38.5321047,68.296786 C39.3645376,68.296786 40.0393273,69.0051059 40.0393273,69.8789024 Z" id="Stroke-13" stroke-linecap="round" stroke-linejoin="round"></path>
                            <path d="M66.16452,69.8789024 C66.16452,70.7526988 65.4897303,75.3396256 64.6572974,75.3396256 C63.8248645,75.3396256 63.1500747,70.7526988 63.1500747,69.8789024 C63.1500747,69.0051059 63.8248645,68.296786 64.6572974,68.296786 C65.4897303,68.296786 66.16452,69.0051059 66.16452,69.8789024 Z" id="Stroke-15" stroke-linecap="round" stroke-linejoin="round"></path>
                            <path d="M54.1067388,69.0988127 C54.1067388,70.0970829 53.2076937,75.3396256 52.0971086,75.3396256 C50.9886388,75.3396256 50.0874784,70.0970829 50.0874784,69.0988127 C50.0874784,68.1005425 50.9886388,67.290666 52.0971086,67.290666 C53.2076937,67.290666 54.1067388,68.1005425 54.1067388,69.0988127 Z" id="Stroke-17" stroke-linecap="round" stroke-linejoin="round"></path>
                            <path d="M51.594701,39.1193076 C49.6510019,39.1193076 48.0778481,41.8978118 48.0778481,44.500139 L48.0778481,64.8305542 C48.0778481,65.0789002 49.6510019,65.2784261 51.594701,65.2784261 C53.5361813,65.2784261 55.1115539,65.0789002 55.1115539,64.8305542 L55.1115539,44.500139 C55.1115539,41.8978118 53.5361813,39.1193076 51.594701,39.1193076 Z" id="Stroke-19" stroke-linecap="round" stroke-linejoin="round"></path>
                            <ellipse id="Oval-Copy-12" opacity="0.200000003" cx="52.0289855" cy="52.0965496" rx="52.0289855" ry="52.0965496"></ellipse>
                        </g>
                        <g id="support" transform="translate(14.008919, 112.207953)">
                            <path d="M31.3038413,57.4483386 C31.8573696,59.4382556 32.8858091,60.6354283 34.0714828,61.8535475 L34.0714828,63.654946 C33.5404165,65.3677247 29.3384148,68.1229943 23.6218313,70.3433227 C23.1340846,70.5334524 22.8115942,71.0087767 22.8115942,71.5404954 L22.8115942,72.4556961 C22.8115942,73.1630431 23.3747491,73.7366548 24.0694672,73.7366548 L52.7711125,73.7366548 C53.4658306,73.7366548 54.0289855,73.1630431 54.0289855,72.4556961 L54.0289855,71.5404954 C54.0289855,71.0087767 53.7064951,70.5318412 53.2203529,70.3433227 C47.5037694,68.1246056 43.3017676,65.3709472 42.7690969,63.654946 L42.7690969,61.8535475 C43.9547706,60.6354283 45.0152987,59.4366443 45.568827,57.4483386 L45.568827,48.5122419 C45.568827,44.3519459 43.6964574,41.6772397 38.4210921,41.6772397 C33.2821033,41.6772397 31.3038413,44.3519459 31.3038413,48.5122419 L31.3038413,57.4483386 Z" id="Stroke-1" stroke="#FFBF3B" stroke-width="2" stroke-linecap="round" stroke-linejoin="round"></path>
                            <path d="M47.6254181,56.9054619 C47.6254181,60.9668205 44.5541666,61.6304803 39.6209588,61.7143741" id="Stroke-3" stroke="#FFBF3B" stroke-width="2" stroke-linecap="round" stroke-linejoin="round"></path>
                            <path d="M31.6164994,57.7069472 L30.1818818,57.7069472 C29.2051209,57.7069472 28.4147157,56.9232373 28.4147157,55.9583044 L28.4147157,50.6392509 C28.4147157,49.674318 29.2051209,48.8906081 30.1818818,48.8906081 L31.6164994,48.8906081" id="Stroke-5" stroke="#FFBF3B" stroke-width="2" stroke-linecap="round" stroke-linejoin="round"></path>
                            <path d="M45.2240803,48.8906081 L46.6586979,48.8906081 C47.6354588,48.8906081 48.425864,49.674318 48.425864,50.6392509 L48.425864,55.9583044 C48.425864,56.9232373 47.6354588,57.7069472 46.6586979,57.7069472 L45.2240803,57.7069472" id="Stroke-7" stroke="#FFBF3B" stroke-width="2" stroke-linecap="round" stroke-linejoin="round"></path>
                            <path d="M30.0156076,48.8906081 L30.0156076,46.340576 C30.0156076,41.551292 33.7786851,37.6698128 38.4202899,37.6698128 C43.0618946,37.6698128 46.8249721,41.551292 46.8249721,46.340576 L46.8249721,48.8906081" id="Stroke-9" stroke="#FFBF3B" stroke-width="2" stroke-linecap="round" stroke-linejoin="round"></path>
                            <path d="M39.6209588,62.115864 C39.6209588,62.7793684 39.0836799,63.3173449 38.4195436,63.3173449 C37.7568998,63.3173449 37.219621,62.7793684 37.219621,62.115864 C37.219621,61.4523596 37.7568998,60.9128888 38.4195436,60.9128888 C39.0836799,60.9128888 39.6209588,61.4523596 39.6209588,62.115864 Z" id="Stroke-11" stroke="#FFBF3B" stroke-width="2" stroke-linecap="round" stroke-linejoin="round"></path>
                            <ellipse id="Oval-Copy-16" stroke="#FFBF3B" stroke-width="2" opacity="0.200000003" cx="38.0200669" cy="56.1039765" rx="36.0200669" ry="36.066842"></ellipse>
                            <path d="M10.1459579,12.4799805 C10.1459579,13.3051799 9.84762109,13.9526344 9.25093842,14.4223633 C8.65425574,14.8920922 7.83118455,15.1269531 6.78170013,15.1269531 C5.73221572,15.1269531 4.87317483,14.9640316 4.2045517,14.6381836 L4.2045517,13.2036133 C4.6277309,13.4025075 5.07735205,13.5590815 5.55342865,13.6733398 C6.02950525,13.7875982 6.47277881,13.8447266 6.88326263,13.8447266 C7.4841771,13.8447266 7.92745066,13.7304699 8.21309662,13.5019531 C8.49874258,13.2734364 8.64156342,12.966636 8.64156342,12.581543 C8.64156342,12.234536 8.51037983,11.9404309 8.24800873,11.6992188 C7.98563762,11.4580066 7.44397637,11.1723649 6.62300873,10.8422852 C5.77665033,10.49951 5.17997661,10.1080751 4.83296967,9.66796875 C4.48596272,9.22786238 4.31246185,8.69889632 4.31246185,8.08105469 C4.31246185,7.30663675 4.58752421,6.69726785 5.13765717,6.25292969 C5.68779012,5.80859153 6.42622675,5.58642578 7.3529892,5.58642578 C8.24166552,5.58642578 9.12609677,5.78108529 10.0063095,6.17041016 L9.52388763,7.40820312 C8.6986882,7.06119618 7.96236743,6.88769531 7.31490326,6.88769531 C6.82401539,6.88769531 6.45162328,6.99454646 6.19771576,7.20825195 C5.94380824,7.42195745 5.81685638,7.70442533 5.81685638,8.05566406 C5.81685638,8.29687621 5.86763713,8.50317297 5.96920013,8.67456055 C6.07076314,8.84594812 6.23791642,9.00781174 6.47066498,9.16015625 C6.70341354,9.31250076 7.12235466,9.51350787 7.72750092,9.76318359 C8.40881943,10.0467137 8.90816339,10.3111967 9.22554779,10.5566406 C9.54293219,10.8020846 9.77567726,11.0792628 9.92378998,11.3881836 C10.0719027,11.6971044 10.1459579,12.0610331 10.1459579,12.4799805 Z M20.2167587,5.71972656 L20.2167587,11.7246094 C20.2167587,12.4101597 20.0697062,13.0100072 19.7755966,13.5241699 C19.4814871,14.0383326 19.0561984,14.4339993 18.4997177,14.7111816 C17.9432371,14.988364 17.2777978,15.1269531 16.5033798,15.1269531 C15.3523324,15.1269531 14.4573218,14.8222687 13.8183212,14.2128906 C13.1793206,13.6035126 12.8598251,12.7656303 12.8598251,11.6992188 L12.8598251,5.71972656 L14.3832626,5.71972656 L14.3832626,11.5913086 C14.3832626,12.3572629 14.5609952,12.9221987 14.9164658,13.2861328 C15.2719363,13.6500669 15.8178293,13.8320312 16.5541611,13.8320312 C17.9845068,13.8320312 18.6996689,13.0808994 18.6996689,11.5786133 L18.6996689,5.71972656 L20.2167587,5.71972656 Z M29.7353134,8.52539062 C29.7353134,9.49447099 29.4179338,10.2371393 28.783165,10.753418 C28.1483962,11.2696966 27.2449221,11.527832 26.0727158,11.527832 L25.107872,11.527832 L25.107872,15 L23.5907822,15 L23.5907822,5.71972656 L26.2631454,5.71972656 C27.4226565,5.71972656 28.2912187,5.95670336 28.8688583,6.43066406 C29.4464979,6.90462477 29.7353134,7.60285997 29.7353134,8.52539062 Z M25.107872,10.2519531 L25.9140244,10.2519531 C26.6926741,10.2519531 27.2639574,10.1165378 27.6278915,9.84570312 C27.9918257,9.57486844 28.17379,9.15169559 28.17379,8.57617188 C28.17379,8.04296608 28.0108684,7.6451836 27.6850204,7.3828125 C27.3591725,7.1204414 26.851365,6.98925781 26.1615829,6.98925781 L25.107872,6.98925781 L25.107872,10.2519531 Z M38.7333603,8.52539062 C38.7333603,9.49447099 38.4159807,10.2371393 37.7812119,10.753418 C37.1464431,11.2696966 36.242969,11.527832 35.0707626,11.527832 L34.1059189,11.527832 L34.1059189,15 L32.588829,15 L32.588829,5.71972656 L35.2611923,5.71972656 C36.4207033,5.71972656 37.2892656,5.95670336 37.8669052,6.43066406 C38.4445448,6.90462477 38.7333603,7.60285997 38.7333603,8.52539062 Z M34.1059189,10.2519531 L34.9120712,10.2519531 C35.690721,10.2519531 36.2620043,10.1165378 36.6259384,9.84570312 C36.9898725,9.57486844 37.1718369,9.15169559 37.1718369,8.57617188 C37.1718369,8.04296608 37.0089153,7.6451836 36.6830673,7.3828125 C36.3572193,7.1204414 35.8494119,6.98925781 35.1596298,6.98925781 L34.1059189,6.98925781 L34.1059189,10.2519531 Z M49.8261337,10.347168 C49.8261337,11.8579177 49.448452,13.0322224 48.6930771,13.8701172 C47.9377022,14.708012 46.8681328,15.1269531 45.4843369,15.1269531 C44.0836137,15.1269531 43.0076967,14.7111858 42.2565536,13.8796387 C41.5054106,13.0480915 41.1298447,11.8663814 41.1298447,10.3344727 C41.1298447,8.80256396 41.5075264,7.62614343 42.2629013,6.80517578 C43.0182762,5.98420813 44.096309,5.57373047 45.4970322,5.57373047 C46.8765964,5.57373047 47.9429919,5.99055573 48.6962509,6.82421875 C49.4495099,7.65788177 49.8261337,8.83218644 49.8261337,10.347168 Z M42.7421494,10.347168 C42.7421494,11.4897518 42.9727786,12.3561982 43.4340439,12.9465332 C43.8953092,13.5368682 44.5787334,13.8320312 45.4843369,13.8320312 C46.3857085,13.8320312 47.0659589,13.540042 47.5251083,12.9560547 C47.9842578,12.3720674 48.213829,11.5024472 48.213829,10.347168 C48.213829,9.20881592 47.9863736,8.34554331 47.531456,7.75732422 C47.0765384,7.16910513 46.3984039,6.875 45.4970322,6.875 C44.5871969,6.875 43.9005989,7.16910513 43.4372177,7.75732422 C42.9738365,8.34554331 42.7421494,9.20881592 42.7421494,10.347168 Z M54.3363876,10.0361328 L55.3900986,10.0361328 C56.0968078,10.0361328 56.608847,9.90494923 56.9262314,9.64257812 C57.2436158,9.38020702 57.4023056,8.990888 57.4023056,8.47460938 C57.4023056,7.94986717 57.2309206,7.57324333 56.8881454,7.34472656 C56.5453703,7.11620979 56.0290994,7.00195312 55.3393173,7.00195312 L54.3363876,7.00195312 L54.3363876,10.0361328 Z M54.3363876,11.2929688 L54.3363876,15 L52.8192978,15 L52.8192978,5.71972656 L55.4408798,5.71972656 C56.638477,5.71972656 57.5250241,5.94400817 58.1005478,6.39257812 C58.6760715,6.84114808 58.963829,7.51822464 58.963829,8.42382812 C58.963829,9.57910734 58.3629236,10.4021785 57.1610947,10.8930664 L59.7826767,15 L58.0561142,15 L55.8344345,11.2929688 L54.3363876,11.2929688 Z M65.3339462,15 L63.8168564,15 L63.8168564,7.02099609 L61.0873642,7.02099609 L61.0873642,5.71972656 L68.0634384,5.71972656 L68.0634384,7.02099609 L65.3339462,7.02099609 L65.3339462,15 Z" id="SUPPORT" fill="#FFBF3B"></path>
                        </g>
                    </g>
                    <path d="M49.4562988,539.541016 C49.4562988,541.106453 48.9436086,542.306148 47.9182129,543.140137 C46.8928171,543.974125 45.4333591,544.391113 43.5397949,544.391113 L41.9812012,544.391113 L41.9812012,550 L39.5305176,550 L39.5305176,535.008789 L43.8474121,535.008789 C45.7204683,535.008789 47.1235305,535.391598 48.0566406,536.157227 C48.9897508,536.922855 49.4562988,538.050774 49.4562988,539.541016 Z M41.9812012,542.330078 L43.2834473,542.330078 C44.5412661,542.330078 45.4641084,542.11133 46.052002,541.673828 C46.6398955,541.236326 46.9338379,540.552739 46.9338379,539.623047 C46.9338379,538.761714 46.6706569,538.119143 46.1442871,537.695312 C45.6179173,537.271482 44.797613,537.05957 43.6833496,537.05957 L41.9812012,537.05957 L41.9812012,542.330078 Z M54.901123,541.981445 L56.6032715,541.981445 C57.7448788,541.981445 58.5720189,541.769533 59.0847168,541.345703 C59.5974147,540.921873 59.8537598,540.292973 59.8537598,539.458984 C59.8537598,538.611324 59.5769071,538.002932 59.0231934,537.633789 C58.4694797,537.264647 57.6355036,537.080078 56.5212402,537.080078 L54.901123,537.080078 L54.901123,541.981445 Z M54.901123,544.011719 L54.901123,550 L52.4504395,550 L52.4504395,535.008789 L56.6853027,535.008789 C58.6198827,535.008789 60.0519973,535.37109 60.9816895,536.095703 C61.9113816,536.820316 62.3762207,537.914055 62.3762207,539.376953 C62.3762207,541.243173 61.4055273,542.57275 59.4641113,543.365723 L63.6989746,550 L60.9099121,550 L57.3210449,544.011719 L54.901123,544.011719 Z M79.182373,542.483887 C79.182373,544.924329 78.5722717,546.821282 77.3520508,548.174805 C76.1318298,549.528327 74.4040639,550.205078 72.1687012,550.205078 C69.9059945,550.205078 68.1679748,549.533454 66.9545898,548.190186 C65.7412049,546.846917 65.1345215,544.938001 65.1345215,542.463379 C65.1345215,539.988757 65.7446228,538.088386 66.9648438,536.762207 C68.1850647,535.436029 69.9265024,534.772949 72.189209,534.772949 C74.4177358,534.772949 76.1403748,535.446282 77.3571777,536.792969 C78.5739807,538.139655 79.182373,540.036609 79.182373,542.483887 Z M67.7390137,542.483887 C67.7390137,544.329599 68.1115685,545.729243 68.8566895,546.682861 C69.6018104,547.636479 70.7058032,548.113281 72.1687012,548.113281 C73.6247631,548.113281 74.7236291,547.641606 75.465332,546.698242 C76.207035,545.754878 76.5778809,544.350107 76.5778809,542.483887 C76.5778809,540.64501 76.2104529,539.250493 75.4755859,538.300293 C74.740719,537.350093 73.645271,536.875 72.189209,536.875 C70.7194751,536.875 69.6103553,537.350093 68.8618164,538.300293 C68.1132775,539.250493 67.7390137,540.64501 67.7390137,542.483887 Z M94.5939941,542.36084 C94.5939941,544.835462 93.9069893,546.727288 92.532959,548.036377 C91.1589287,549.345466 89.1799446,550 86.5959473,550 L82.4020996,550 L82.4020996,535.008789 L87.0368652,535.008789 C89.4226194,535.008789 91.2785578,535.651361 92.6047363,536.936523 C93.9309148,538.221686 94.5939941,540.029774 94.5939941,542.36084 Z M92.0100098,542.442871 C92.0100098,538.853986 90.3318039,537.05957 86.9753418,537.05957 L84.8527832,537.05957 L84.8527832,547.938965 L86.5959473,547.938965 C90.2053403,547.938965 92.0100098,546.106952 92.0100098,542.442871 Z M109.564697,535.008789 L109.564697,544.708984 C109.564697,545.816412 109.327151,546.785396 108.852051,547.615967 C108.376951,548.446537 107.689946,549.085691 106.791016,549.533447 C105.892085,549.981203 104.817145,550.205078 103.566162,550.205078 C101.706778,550.205078 100.260991,549.712896 99.2287598,548.728516 C98.196528,547.744136 97.6804199,546.390634 97.6804199,544.667969 L97.6804199,535.008789 L100.141357,535.008789 L100.141357,544.493652 C100.141357,545.730963 100.428464,546.643552 101.002686,547.231445 C101.576907,547.819339 102.458734,548.113281 103.648193,548.113281 C105.958752,548.113281 107.114014,546.899914 107.114014,544.473145 L107.114014,535.008789 L109.564697,535.008789 Z M119.777588,536.895508 C118.369378,536.895508 117.261967,537.394526 116.455322,538.392578 C115.648678,539.39063 115.245361,540.768058 115.245361,542.524902 C115.245361,544.363779 115.633297,545.754878 116.40918,546.698242 C117.185062,547.641606 118.307854,548.113281 119.777588,548.113281 C120.413333,548.113281 121.028561,548.050049 121.623291,547.923584 C122.218021,547.797119 122.836667,547.634767 123.479248,547.436523 L123.479248,549.538574 C122.303461,549.982912 120.970466,550.205078 119.480225,550.205078 C117.285878,550.205078 115.600836,549.54029 114.425049,548.210693 C113.249262,546.881097 112.661377,544.979016 112.661377,542.504395 C112.661377,540.945793 112.946774,539.582037 113.517578,538.413086 C114.088382,537.244135 114.913813,536.348636 115.993896,535.726562 C117.07398,535.104489 118.342034,534.793457 119.798096,534.793457 C121.329353,534.793457 122.744378,535.114743 124.043213,535.757324 L123.161377,537.797852 C122.655515,537.558593 122.120608,537.34839 121.556641,537.167236 C120.992673,536.986083 120.399661,536.895508 119.777588,536.895508 Z M131.887451,550 L129.436768,550 L129.436768,537.11084 L125.027588,537.11084 L125.027588,535.008789 L136.296631,535.008789 L136.296631,537.11084 L131.887451,537.11084 L131.887451,550 Z M144.048584,550 L144.048584,535.008789 L146.499268,535.008789 L146.499268,547.897949 L152.846436,547.897949 L152.846436,550 L144.048584,550 Z M164.730713,550 L163.233643,545.836914 L157.501709,545.836914 L156.0354,550 L153.451416,550 L159.060303,534.947266 L161.726318,534.947266 L167.335205,550 L164.730713,550 Z M162.587646,543.724609 L161.182861,539.643555 C161.080322,539.370116 160.938477,538.939456 160.757324,538.351562 C160.576171,537.763669 160.451416,537.333009 160.383057,537.05957 C160.198485,537.900395 159.928469,538.819819 159.572998,539.817871 L158.219482,543.724609 L162.587646,543.724609 Z M181.065186,535.008789 L181.065186,544.708984 C181.065186,545.816412 180.827639,546.785396 180.352539,547.615967 C179.877439,548.446537 179.190434,549.085691 178.291504,549.533447 C177.392574,549.981203 176.317633,550.205078 175.06665,550.205078 C173.207266,550.205078 171.76148,549.712896 170.729248,548.728516 C169.697016,547.744136 169.180908,546.390634 169.180908,544.667969 L169.180908,535.008789 L171.641846,535.008789 L171.641846,544.493652 C171.641846,545.730963 171.928952,546.643552 172.503174,547.231445 C173.077395,547.819339 173.959223,548.113281 175.148682,548.113281 C177.45924,548.113281 178.614502,546.899914 178.614502,544.473145 L178.614502,535.008789 L181.065186,535.008789 Z M197.389404,550 L194.38501,550 L187.012451,538.054199 L186.93042,538.054199 L186.981689,538.720703 C187.077393,539.992194 187.125244,541.154292 187.125244,542.207031 L187.125244,550 L184.900146,550 L184.900146,535.008789 L187.873779,535.008789 L195.22583,546.893066 L195.287354,546.893066 C195.273682,546.735839 195.246338,546.163335 195.205322,545.175537 C195.164306,544.187739 195.143799,543.416995 195.143799,542.863281 L195.143799,535.008789 L197.389404,535.008789 L197.389404,550 Z M207.725342,536.895508 C206.317132,536.895508 205.209721,537.394526 204.403076,538.392578 C203.596432,539.39063 203.193115,540.768058 203.193115,542.524902 C203.193115,544.363779 203.581051,545.754878 204.356934,546.698242 C205.132816,547.641606 206.255608,548.113281 207.725342,548.113281 C208.361087,548.113281 208.976315,548.050049 209.571045,547.923584 C210.165774,547.797119 210.784421,547.634767 211.427002,547.436523 L211.427002,549.538574 C210.251215,549.982912 208.91822,550.205078 207.427979,550.205078 C205.233632,550.205078 203.54859,549.54029 202.372803,548.210693 C201.197016,546.881097 200.609131,544.979016 200.609131,542.504395 C200.609131,540.945793 200.894528,539.582037 201.465332,538.413086 C202.036136,537.244135 202.861567,536.348636 203.94165,535.726562 C205.021734,535.104489 206.289788,534.793457 207.74585,534.793457 C209.277107,534.793457 210.692132,535.114743 211.990967,535.757324 L211.109131,537.797852 C210.603269,537.558593 210.068362,537.34839 209.504395,537.167236 C208.940427,536.986083 208.347415,536.895508 207.725342,536.895508 Z M226.479736,550 L224.018799,550 L224.018799,543.242676 L217.107666,543.242676 L217.107666,550 L214.656982,550 L214.656982,535.008789 L217.107666,535.008789 L217.107666,541.140625 L224.018799,541.140625 L224.018799,535.008789 L226.479736,535.008789 L226.479736,550 Z" id="PRODUCT-LAUNCH-Copy" fill="#FFBF3B"></path>
                </g>
            </g>
        </g>
    </g>
</svg>