<?xml version="1.0" encoding="UTF-8"?>
<svg width="893px" height="321px" viewBox="0 0 893 321" version="1.1" xmlns="http://www.w3.org/2000/svg" xmlns:xlink="http://www.w3.org/1999/xlink">
    <defs></defs>
    <g id="Homepage" stroke="none" stroke-width="1" fill="none" fill-rule="evenodd">
        <g id="CodeFirst-v2---Homepage" transform="translate(-356.000000, -3067.000000)">
            <g id="masters-of-agile-development" transform="translate(272.000000, 2796.000000)">
                <g id="scheme" transform="translate(84.000000, 271.000000)">
                    <g id="agile-development" transform="translate(279.000000, 60.000000)">
                        <polyline id="Stroke-1" stroke="#613FFF" stroke-width="2" stroke-linecap="round" stroke-linejoin="round" points="39.6091 70.484 68.0001 46 44.0591 75.035"></polyline>
                        <polygon id="Stroke-3" stroke="#613FFF" stroke-width="2" stroke-linecap="round" stroke-linejoin="round" points="38.5503 80.6693 34.1003 76.1173 39.6093 70.4843 44.0593 75.0343"></polygon>
                        <path d="M34.1007,76.1177 C34.1007,76.1177 27.5177,76.4557 25.7287,83.1577 C23.9357,89.8797 20.9997,92.8557 20.9997,92.8557 C20.9997,92.8557 37.0447,96.9907 38.5507,80.6697" id="Stroke-4" stroke="#613FFF" stroke-width="2" stroke-linecap="round" stroke-linejoin="round"></path>
                        <circle id="Oval-Copy-17" stroke="#613FFF" stroke-width="2" opacity="0.200000003" cx="45" cy="70" r="45"></circle>
                        <path d="M27.5068359,5.27099609 C27.5068359,6.80290479 27.0815472,7.97403566 26.230957,8.78442383 C25.3803668,9.59481199 24.1552814,10 22.5556641,10 L19.9594727,10 L19.9594727,0.719726562 L22.8286133,0.719726562 C24.3055087,0.719726562 25.454423,1.11750904 26.2753906,1.91308594 C27.0963583,2.70866283 27.5068359,3.82795502 27.5068359,5.27099609 Z M25.9072266,5.32177734 C25.9072266,3.10008655 24.8683372,1.98925781 22.7905273,1.98925781 L21.4765625,1.98925781 L21.4765625,8.72412109 L22.5556641,8.72412109 C24.7900502,8.72412109 25.9072266,7.59001785 25.9072266,5.32177734 Z M35.7495117,10 L30.5,10 L30.5,0.719726562 L35.7495117,0.719726562 L35.7495117,2.00195312 L32.0170898,2.00195312 L32.0170898,4.52832031 L35.5146484,4.52832031 L35.5146484,5.79785156 L32.0170898,5.79785156 L32.0170898,8.71142578 L35.7495117,8.71142578 L35.7495117,10 Z M44.1064453,7.47998047 C44.1064453,8.30517991 43.8081085,8.95263437 43.2114258,9.42236328 C42.6147431,9.89209219 41.7916719,10.1269531 40.7421875,10.1269531 C39.6927031,10.1269531 38.8336622,9.96403158 38.1650391,9.63818359 L38.1650391,8.20361328 C38.5882183,8.4025075 39.0378394,8.55908146 39.513916,8.67333984 C39.9899926,8.78759823 40.4332662,8.84472656 40.84375,8.84472656 C41.4446645,8.84472656 41.887938,8.73046989 42.173584,8.50195312 C42.4592299,8.27343636 42.6020508,7.96663604 42.6020508,7.58154297 C42.6020508,7.23453603 42.4708672,6.94043089 42.2084961,6.69921875 C41.946125,6.45800661 41.4044637,6.17236493 40.5834961,5.84228516 C39.7371377,5.49951 39.140464,5.10807512 38.793457,4.66796875 C38.4464501,4.22786238 38.2729492,3.69889632 38.2729492,3.08105469 C38.2729492,2.30663675 38.5480116,1.69726785 39.0981445,1.25292969 C39.6482775,0.808591528 40.3867141,0.586425781 41.3134766,0.586425781 C42.2021529,0.586425781 43.0865841,0.781085293 43.9667969,1.17041016 L43.484375,2.40820312 C42.6591756,2.06119618 41.9228548,1.88769531 41.2753906,1.88769531 C40.7845028,1.88769531 40.4121106,1.99454646 40.1582031,2.20825195 C39.9042956,2.42195745 39.7773438,2.70442533 39.7773438,3.05566406 C39.7773438,3.29687621 39.8281245,3.50317297 39.9296875,3.67456055 C40.0312505,3.84594812 40.1984038,4.00781174 40.4311523,4.16015625 C40.6639009,4.31250076 41.082842,4.51350787 41.6879883,4.76318359 C42.3693068,5.04671366 42.8686508,5.31119669 43.1860352,5.55664062 C43.5034196,5.80208456 43.7361646,6.07926278 43.8842773,6.38818359 C44.0323901,6.69710441 44.1064453,7.06103306 44.1064453,7.47998047 Z M46.902832,10 L46.902832,0.719726562 L48.4199219,0.719726562 L48.4199219,10 L46.902832,10 Z M55.6660156,4.96630859 L59.0810547,4.96630859 L59.0810547,9.62548828 C58.5224581,9.80745534 57.9860866,9.93652306 57.4719238,10.0126953 C56.9577611,10.0888676 56.4023467,10.1269531 55.8056641,10.1269531 C54.4007091,10.1269531 53.3173866,9.7111858 52.5556641,8.87963867 C51.7939415,8.04809155 51.4130859,6.87484481 51.4130859,5.35986328 C51.4130859,3.86604071 51.8426064,2.69702571 52.7016602,1.8527832 C53.5607139,1.0085407 54.7434821,0.586425781 56.25,0.586425781 C57.2190804,0.586425781 58.1373655,0.772621836 59.0048828,1.14501953 L58.4716797,2.40820312 C57.7184207,2.06119618 56.965173,1.88769531 56.2119141,1.88769531 C55.2216747,1.88769531 54.438805,2.19872736 53.8632812,2.82080078 C53.2877575,3.4428742 53,4.29345164 53,5.37255859 C53,6.50667885 53.2591934,7.36889353 53.7775879,7.95922852 C54.2959824,8.5495635 55.0418246,8.84472656 56.0151367,8.84472656 C56.5060246,8.84472656 57.0307589,8.7833665 57.5893555,8.66064453 L57.5893555,6.26757812 L55.6660156,6.26757812 L55.6660156,4.96630859 Z M70.0405273,10 L68.1806641,10 L63.6166992,2.60498047 L63.565918,2.60498047 L63.5976562,3.01757812 C63.6569013,3.80469144 63.6865234,4.52408528 63.6865234,5.17578125 L63.6865234,10 L62.309082,10 L62.309082,0.719726562 L64.1499023,0.719726562 L68.7011719,8.07666016 L68.7392578,8.07666016 C68.7307942,7.97932894 68.7138673,7.62492168 68.6884766,7.01342773 C68.6630858,6.40193379 68.6503906,5.9248064 68.6503906,5.58203125 L68.6503906,0.719726562 L70.0405273,0.719726562 L70.0405273,10 Z" id="DESIGN" fill="#613FFF"></path>
                        <path d="M158.621,87.3454 L157.661,93.2734 C157.661,93.7054 158.091,94.0574 158.621,94.0574 L173.375,94.0574 C173.905,94.0574 174.335,93.7054 174.335,93.2734 L173.373,87.3454" id="Stroke-1" stroke="#613FFF" stroke-width="2" stroke-linecap="round" stroke-linejoin="round"></path>
                        <path d="M185.7476,48 L146.2456,48 C144.4296,48 142.9996,49.446 142.9996,51.262 L142.9996,78.724 C142.9996,80.542 144.4296,82 146.2456,82 L185.7476,82 C187.5676,82 188.9996,80.542 188.9996,78.724 L188.9996,51.262 C188.9996,49.446 187.5676,48 185.7476,48 Z" id="Stroke-3" stroke="#613FFF" stroke-width="2" stroke-linecap="round" stroke-linejoin="round"></path>
                        <path d="M143.0022,76 L189.0002,76" id="Stroke-5" stroke="#613FFF" stroke-width="2" stroke-linecap="round" stroke-linejoin="round"></path>
                        <path d="M165.9692,63.7368 C165.0612,63.7368 164.3232,62.9988 164.3232,62.0908 C164.3232,61.1828 165.0612,60.4448 165.9692,60.4468 C166.8772,60.4468 167.6152,61.1828 167.6152,62.0908 C167.6152,62.9988 166.8772,63.7368 165.9692,63.7368 Z" id="Stroke-7" stroke="#613FFF" stroke-width="2" stroke-linecap="round" stroke-linejoin="round"></path>
                        <path d="M172.9982,62.0982 C172.9982,65.9802 169.8502,69.1262 165.9682,69.1262 C162.0862,69.1262 158.9402,65.9802 158.9402,62.0982 C158.9402,58.2162 162.0862,55.0682 165.9682,55.0682 C169.8502,55.0682 172.9982,58.2162 172.9982,62.0982 Z" id="Stroke-9" stroke="#613FFF" stroke-width="2" stroke-linecap="round" stroke-linejoin="round"></path>
                        <path d="M165,55.069 L165,53.047" id="Stroke-11" stroke="#613FFF" stroke-width="2" stroke-linecap="round" stroke-linejoin="round"></path>
                        <path d="M165,71.2028 L165,69.1808" id="Stroke-13" stroke="#613FFF" stroke-width="2" stroke-linecap="round" stroke-linejoin="round"></path>
                        <path d="M173.0252,62 L175.0472,62" id="Stroke-15" stroke="#613FFF" stroke-width="2" stroke-linecap="round" stroke-linejoin="round"></path>
                        <path d="M156.8914,62 L158.9134,62" id="Stroke-17" stroke="#613FFF" stroke-width="2" stroke-linecap="round" stroke-linejoin="round"></path>
                        <path d="M169.497,56.0142 L170.507,54.2642" id="Stroke-19" stroke="#613FFF" stroke-width="2" stroke-linecap="round" stroke-linejoin="round"></path>
                        <path d="M161.4302,69.9866 L162.4402,68.2366" id="Stroke-21" stroke="#613FFF" stroke-width="2" stroke-linecap="round" stroke-linejoin="round"></path>
                        <path d="M162.4408,56.0142 L161.4308,54.2642" id="Stroke-23" stroke="#613FFF" stroke-width="2" stroke-linecap="round" stroke-linejoin="round"></path>
                        <path d="M170.5078,69.9866 L169.4978,68.2366" id="Stroke-25" stroke="#613FFF" stroke-width="2" stroke-linecap="round" stroke-linejoin="round"></path>
                        <path d="M172.0798,65.6532 L173.8298,66.6632" id="Stroke-27" stroke="#613FFF" stroke-width="2" stroke-linecap="round" stroke-linejoin="round"></path>
                        <path d="M158.1076,57.5864 L159.8576,58.5964" id="Stroke-29" stroke="#613FFF" stroke-width="2" stroke-linecap="round" stroke-linejoin="round"></path>
                        <path d="M172.0798,58.597 L173.8298,57.587" id="Stroke-31" stroke="#613FFF" stroke-width="2" stroke-linecap="round" stroke-linejoin="round"></path>
                        <path d="M158.1076,66.664 L159.8576,65.654" id="Stroke-33" stroke="#613FFF" stroke-width="2" stroke-linecap="round" stroke-linejoin="round"></path>
                        <circle id="Oval-Copy-14" stroke="#613FFF" stroke-width="2" opacity="0.200000003" cx="165" cy="70" r="45"></circle>
                        <path d="M142.195312,5.27099609 C142.195312,6.80290479 141.770024,7.97403566 140.919434,8.78442383 C140.068843,9.59481199 138.843758,10 137.244141,10 L134.647949,10 L134.647949,0.719726562 L137.51709,0.719726562 C138.993985,0.719726562 140.1429,1.11750904 140.963867,1.91308594 C141.784835,2.70866283 142.195312,3.82795502 142.195312,5.27099609 Z M140.595703,5.32177734 C140.595703,3.10008655 139.556814,1.98925781 137.479004,1.98925781 L136.165039,1.98925781 L136.165039,8.72412109 L137.244141,8.72412109 C139.478527,8.72412109 140.595703,7.59001785 140.595703,5.32177734 Z M150.437988,10 L145.188477,10 L145.188477,0.719726562 L150.437988,0.719726562 L150.437988,2.00195312 L146.705566,2.00195312 L146.705566,4.52832031 L150.203125,4.52832031 L150.203125,5.79785156 L146.705566,5.79785156 L146.705566,8.71142578 L150.437988,8.71142578 L150.437988,10 Z M158.731445,0.719726562 L160.305664,0.719726562 L157.055664,10 L155.456055,10 L152.21875,0.719726562 L153.780273,0.719726562 L155.716309,6.48974609 C155.817872,6.76481257 155.925781,7.11921984 156.040039,7.55297852 C156.154297,7.98673719 156.228353,8.30940649 156.262207,8.52099609 C156.31722,8.1993799 156.401855,7.82698779 156.516113,7.40380859 C156.630372,6.98062939 156.72347,6.66748148 156.79541,6.46435547 L158.731445,0.719726562 Z M167.780273,10 L162.530762,10 L162.530762,0.719726562 L167.780273,0.719726562 L167.780273,2.00195312 L164.047852,2.00195312 L164.047852,4.52832031 L167.54541,4.52832031 L167.54541,5.79785156 L164.047852,5.79785156 L164.047852,8.71142578 L167.780273,8.71142578 L167.780273,10 Z M170.786133,10 L170.786133,0.719726562 L172.303223,0.719726562 L172.303223,8.69873047 L176.232422,8.69873047 L176.232422,10 L170.786133,10 Z M186.811035,5.34716797 C186.811035,6.85791771 186.433353,8.03222237 185.677979,8.87011719 C184.922604,9.708012 183.853034,10.1269531 182.469238,10.1269531 C181.068515,10.1269531 179.992598,9.7111858 179.241455,8.87963867 C178.490312,8.04809155 178.114746,6.86638136 178.114746,5.33447266 C178.114746,3.80256396 178.492428,2.62614343 179.247803,1.80517578 C180.003178,0.984208135 181.08121,0.573730469 182.481934,0.573730469 C183.861498,0.573730469 184.927893,0.990555728 185.681152,1.82421875 C186.434411,2.65788177 186.811035,3.83218644 186.811035,5.34716797 Z M179.727051,5.34716797 C179.727051,6.48975181 179.95768,7.35619822 180.418945,7.9465332 C180.880211,8.53686819 181.563635,8.83203125 182.469238,8.83203125 C183.37061,8.83203125 184.05086,8.54004198 184.51001,7.95605469 C184.969159,7.37206739 185.19873,6.50244718 185.19873,5.34716797 C185.19873,4.20881592 184.971275,3.34554331 184.516357,2.75732422 C184.06144,2.16910513 183.383305,1.875 182.481934,1.875 C181.572098,1.875 180.8855,2.16910513 180.422119,2.75732422 C179.958738,3.34554331 179.727051,4.20881592 179.727051,5.34716797 Z M195.94873,3.52539062 C195.94873,4.49447099 195.631351,5.23713935 194.996582,5.75341797 C194.361813,6.26969659 193.458339,6.52783203 192.286133,6.52783203 L191.321289,6.52783203 L191.321289,10 L189.804199,10 L189.804199,0.719726562 L192.476562,0.719726562 C193.636074,0.719726562 194.504636,0.956703359 195.082275,1.43066406 C195.659915,1.90462477 195.94873,2.60285997 195.94873,3.52539062 Z M191.321289,5.25195312 L192.127441,5.25195312 C192.906091,5.25195312 193.477374,5.11653781 193.841309,4.84570312 C194.205243,4.57486844 194.387207,4.15169559 194.387207,3.57617188 C194.387207,3.04296608 194.224285,2.6451836 193.898438,2.3828125 C193.57259,2.1204414 193.064782,1.98925781 192.375,1.98925781 L191.321289,1.98925781 L191.321289,5.25195312 Z" id="DEVELOP" fill="#613FFF"></path>
                        <path d="M172.588556,205 L147.605667,205 C144.067444,205 141,207.843149 141,211.352793 L141,221.82056 C141,225.330204 144.067444,228.200772 147.605667,228.200772 L149.444444,228.200772 L149.444444,234.418579 C149.444444,235.787425 150.823,236.512976 151.834222,235.580727 L159.601,228.200772 L172.588556,228.200772 C176.124667,228.200772 179,225.330204 179,221.82056 L179,211.352793 C179,207.843149 176.124667,205 172.588556,205 Z" id="Stroke-1" stroke="#613FFF" stroke-width="2" stroke-linecap="round" stroke-linejoin="round"></path>
                        <path d="M183.21741,216 C186.385443,215.636809 189,212.907628 189,209.588523 L189,201.455563 C189,197.890833 185.852619,195 182.343826,195 L161.997372,195 C158.6951,195 156.305651,197.56543 156,200.840448" id="Stroke-3" stroke="#613FFF" stroke-width="2" stroke-linecap="round" stroke-linejoin="round"></path>
                        <path d="M149,220 L170,220" id="Stroke-5" stroke="#613FFF" stroke-width="2" stroke-linecap="round" stroke-linejoin="round"></path>
                        <path d="M149,214 L170,214" id="Stroke-7" stroke="#613FFF" stroke-width="2" stroke-linecap="round" stroke-linejoin="round"></path>
                        <circle id="Oval-Copy-15" stroke="#613FFF" stroke-width="2" opacity="0.200000003" cx="165" cy="215" r="45"></circle>
                        <path d="M132.14209,157 L130.637695,157 L130.637695,147.719727 L135.874512,147.719727 L135.874512,149.001953 L132.14209,149.001953 L132.14209,151.902832 L135.639648,151.902832 L135.639648,153.191406 L132.14209,153.191406 L132.14209,157 Z M143.806152,157 L138.556641,157 L138.556641,147.719727 L143.806152,147.719727 L143.806152,149.001953 L140.07373,149.001953 L140.07373,151.52832 L143.571289,151.52832 L143.571289,152.797852 L140.07373,152.797852 L140.07373,155.711426 L143.806152,155.711426 L143.806152,157 Z M152.061523,157 L146.812012,157 L146.812012,147.719727 L152.061523,147.719727 L152.061523,149.001953 L148.329102,149.001953 L148.329102,151.52832 L151.82666,151.52832 L151.82666,152.797852 L148.329102,152.797852 L148.329102,155.711426 L152.061523,155.711426 L152.061523,157 Z M162.614746,152.270996 C162.614746,153.802905 162.189457,154.974036 161.338867,155.784424 C160.488277,156.594812 159.263192,157 157.663574,157 L155.067383,157 L155.067383,147.719727 L157.936523,147.719727 C159.413419,147.719727 160.562333,148.117509 161.383301,148.913086 C162.204268,149.708663 162.614746,150.827955 162.614746,152.270996 Z M161.015137,152.321777 C161.015137,150.100087 159.976247,148.989258 157.898438,148.989258 L156.584473,148.989258 L156.584473,155.724121 L157.663574,155.724121 C159.89796,155.724121 161.015137,154.590018 161.015137,152.321777 Z M165.60791,147.719727 L168.362793,147.719727 C169.640794,147.719727 170.564369,147.905923 171.133545,148.27832 C171.702721,148.650718 171.987305,149.238928 171.987305,150.042969 C171.987305,150.584638 171.847658,151.035317 171.568359,151.39502 C171.289061,151.754722 170.887047,151.981119 170.362305,152.074219 L170.362305,152.137695 C171.014001,152.260417 171.493244,152.502684 171.800049,152.864502 C172.106854,153.22632 172.260254,153.716143 172.260254,154.333984 C172.260254,155.167647 171.969323,155.820392 171.387451,156.292236 C170.80558,156.764081 169.996262,157 168.959473,157 L165.60791,157 L165.60791,147.719727 Z M167.125,151.553711 L168.584961,151.553711 C169.21973,151.553711 169.683104,151.453207 169.975098,151.252197 C170.267091,151.051187 170.413086,150.709475 170.413086,150.227051 C170.413086,149.791176 170.255454,149.475912 169.940186,149.28125 C169.624917,149.086588 169.124515,148.989258 168.438965,148.989258 L167.125,148.989258 L167.125,151.553711 Z M167.125,152.785156 L167.125,155.724121 L168.737305,155.724121 C169.372073,155.724121 169.851317,155.602459 170.175049,155.359131 C170.498781,155.115803 170.660645,154.731773 170.660645,154.207031 C170.660645,153.724607 170.495607,153.367026 170.165527,153.134277 C169.835448,152.901529 169.333988,152.785156 168.661133,152.785156 L167.125,152.785156 Z M180.687012,157 L179.760254,154.422852 L176.211914,154.422852 L175.304199,157 L173.70459,157 L177.176758,147.681641 L178.827148,147.681641 L182.299316,157 L180.687012,157 Z M179.360352,153.115234 L178.490723,150.588867 C178.427246,150.419596 178.339437,150.152997 178.227295,149.789062 C178.115152,149.425128 178.037923,149.158529 177.995605,148.989258 C177.881347,149.509768 177.714194,150.078936 177.494141,150.696777 L176.65625,153.115234 L179.360352,153.115234 Z M188.212402,148.887695 C187.340653,148.887695 186.655113,149.196611 186.155762,149.814453 C185.65641,150.432295 185.406738,151.284988 185.406738,152.372559 C185.406738,153.510911 185.646889,154.372067 186.127197,154.956055 C186.607506,155.540042 187.302567,155.832031 188.212402,155.832031 C188.605959,155.832031 188.986815,155.792888 189.35498,155.7146 C189.723146,155.636311 190.106118,155.535808 190.503906,155.413086 L190.503906,156.714355 C189.776038,156.989422 188.950851,157.126953 188.02832,157.126953 C186.669915,157.126953 185.626794,156.715418 184.898926,155.892334 C184.171058,155.06925 183.807129,153.891772 183.807129,152.359863 C183.807129,151.395015 183.983804,150.550785 184.337158,149.827148 C184.690513,149.103512 185.201494,148.549156 185.870117,148.164062 C186.53874,147.778969 187.323726,147.586426 188.225098,147.586426 C189.173019,147.586426 190.048987,147.785317 190.853027,148.183105 L190.307129,149.446289 C189.993976,149.298176 189.662844,149.168051 189.313721,149.055908 C188.964598,148.943766 188.597495,148.887695 188.212402,148.887695 Z M200.587402,157 L198.829102,157 L195.915527,152.797852 L195.020508,153.527832 L195.020508,157 L193.503418,157 L193.503418,147.719727 L195.020508,147.719727 L195.020508,152.150391 C195.435223,151.642576 195.847817,151.153811 196.258301,150.684082 L198.765625,147.719727 L200.492188,147.719727 C198.871411,149.624033 197.709802,150.980302 197.007324,151.788574 L200.587402,157 Z" id="FEEDBACK" fill="#613FFF"></path>
                        <path d="M290.091167,51.1549578 L287.682835,51.1549578 L287.682835,49.8201525 C287.682835,48.2625452 286.379805,47 284.774251,47 L283.313038,47 C281.707484,47 280.404454,48.2625452 280.404454,49.8201525 L280.404454,51.1549578 L277.899235,51.1549578 C274.063304,51.1549578 274.003986,57 277.899235,57 L290.091167,57 C293.974553,57 293.964666,51.1549578 290.091167,51.1549578 Z" id="Stroke-1" stroke="#613FFF" stroke-width="2" stroke-linecap="round" stroke-linejoin="round"></path>
                        <polyline id="Stroke-3" stroke="#613FFF" stroke-width="2" stroke-linecap="round" stroke-linejoin="round" points="296.957499 53 301 53 301 93 267 93 267 53 271.002693 53"></polyline>
                        <polyline id="Stroke-5" stroke="#613FFF" stroke-width="2" stroke-linecap="round" stroke-linejoin="round" points="277 76.3599146 282.022797 82 293 68"></polyline>
                        <circle id="Oval-Copy-13" stroke="#613FFF" stroke-width="2" opacity="0.200000003" cx="285" cy="70" r="45"></circle>
                        <path d="M273.372314,10 L271.855225,10 L271.855225,2.02099609 L269.125732,2.02099609 L269.125732,0.719726562 L276.101807,0.719726562 L276.101807,2.02099609 L273.372314,2.02099609 L273.372314,10 Z M283.773193,10 L278.523682,10 L278.523682,0.719726562 L283.773193,0.719726562 L283.773193,2.00195312 L280.040771,2.00195312 L280.040771,4.52832031 L283.53833,4.52832031 L283.53833,5.79785156 L280.040771,5.79785156 L280.040771,8.71142578 L283.773193,8.71142578 L283.773193,10 Z M292.130127,7.47998047 C292.130127,8.30517991 291.83179,8.95263437 291.235107,9.42236328 C290.638425,9.89209219 289.815354,10.1269531 288.765869,10.1269531 C287.716385,10.1269531 286.857344,9.96403158 286.188721,9.63818359 L286.188721,8.20361328 C286.6119,8.4025075 287.061521,8.55908146 287.537598,8.67333984 C288.013674,8.78759823 288.456948,8.84472656 288.867432,8.84472656 C289.468346,8.84472656 289.91162,8.73046989 290.197266,8.50195312 C290.482912,8.27343636 290.625732,7.96663604 290.625732,7.58154297 C290.625732,7.23453603 290.494549,6.94043089 290.232178,6.69921875 C289.969807,6.45800661 289.428145,6.17236493 288.607178,5.84228516 C287.760819,5.49951 287.164146,5.10807512 286.817139,4.66796875 C286.470132,4.22786238 286.296631,3.69889632 286.296631,3.08105469 C286.296631,2.30663675 286.571693,1.69726785 287.121826,1.25292969 C287.671959,0.808591528 288.410396,0.586425781 289.337158,0.586425781 C290.225835,0.586425781 291.110266,0.781085293 291.990479,1.17041016 L291.508057,2.40820312 C290.682857,2.06119618 289.946536,1.88769531 289.299072,1.88769531 C288.808184,1.88769531 288.435792,1.99454646 288.181885,2.20825195 C287.927977,2.42195745 287.801025,2.70442533 287.801025,3.05566406 C287.801025,3.29687621 287.851806,3.50317297 287.953369,3.67456055 C288.054932,3.84594812 288.222085,4.00781174 288.454834,4.16015625 C288.687583,4.31250076 289.106524,4.51350787 289.71167,4.76318359 C290.392988,5.04671366 290.892332,5.31119669 291.209717,5.55664062 C291.527101,5.80208456 291.759846,6.07926278 291.907959,6.38818359 C292.056072,6.69710441 292.130127,7.06103306 292.130127,7.47998047 Z M298.13208,10 L296.61499,10 L296.61499,2.02099609 L293.885498,2.02099609 L293.885498,0.719726562 L300.861572,0.719726562 L300.861572,2.02099609 L298.13208,2.02099609 L298.13208,10 Z" id="TEST" fill="#613FFF"></path>
                        <polyline id="Path-7-Copy-2" stroke="#DEE3EA" stroke-width="2" stroke-linejoin="bevel" stroke-dasharray="9,4" points="43 120 43 211 113 211"></polyline>
                        <polyline id="Path-7-Copy-3" stroke="#DEE3EA" stroke-width="2" stroke-linejoin="bevel" stroke-dasharray="9,4" transform="translate(252.500000, 167.000000) scale(-1, 1) translate(-252.500000, -167.000000) " points="215 121 215 213 290 213"></polyline>
                        <path d="M101,70 C101,70 105,70 113,70" id="Path-8-Copy-2" stroke="#613FFF" stroke-width="2" stroke-linejoin="bevel" stroke-dasharray="9,4"></path>
                        <path d="M220,70 C220,70 224,70 232,70" id="Path-8-Copy-3" stroke="#613FFF" stroke-width="2" stroke-linejoin="bevel" stroke-dasharray="9,4"></path>
                    </g>
                    <g id="product-launch" transform="translate(733.000000, 65.000000)">
                        <g stroke="#FFBF3B" stroke-width="2">
                            <path d="M84.8061538,81.4468085 L85.1702128,55.7381365 C85.1702128,53.4736557 83.1747316,51.0886122 82.3672324,50.2132226 C82.1838342,50.0140322 81.8799955,50.0140322 81.6965974,50.2132226 C80.8863609,51.0886122 78.893617,53.4736557 78.893617,55.7381365 L79.104388,69.560905" id="Stroke-1" stroke-linecap="round" stroke-linejoin="round"></path>
                            <path d="M51.0630875,69.6631212 L51.2765957,55.7407575 C51.2765957,53.4762766 49.2811146,51.0886122 48.4736154,50.2132226 C48.2902172,50.0140322 47.9863785,50.0140322 47.8029804,50.2132226 C46.9927439,51.0886122 45,53.4762766 45,55.7407575 L45.3613217,81.4468085" id="Stroke-3" stroke-linecap="round" stroke-linejoin="round"></path>
                            <path d="M73.5040361,61.3617021 L73.8723404,49.3418448 C73.8723404,43.6204034 68.2893543,37.5876641 66.0236475,35.3763753 C65.5105614,34.8745416 64.6596513,34.8745416 64.1465653,35.3763753 C61.8808584,37.5876641 56.2978723,43.6204034 56.2978723,49.3418448 L56.6610966,61.3617021" id="Stroke-5" stroke-linecap="round" stroke-linejoin="round"></path>
                            <path d="M60.0638298,62.6954787 C60.0638298,62.6954787 60.3909296,67.5259692 55.6685482,71.2598327 C50.9461668,74.9936962 51.2817941,77.8244612 51.2817941,77.8244612 L60.0638298,78.8969415 L60.0638298,62.6954787 Z" id="Stroke-7" stroke-linecap="round" stroke-linejoin="round"></path>
                            <path d="M68.8510638,62.6170213 C68.8510638,62.6170213 69.7792832,67.5259692 74.5016646,71.2598327 C79.224046,74.9936962 78.8884186,77.8244612 78.8884186,77.8244612 L68.8510638,78.9361702" id="Stroke-9" stroke-linecap="round" stroke-linejoin="round"></path>
                            <path d="M66.2619681,53.9082447 C66.0159255,53.5718191 64.9328989,53.9082447 64.4182181,53.9082447 C63.9035372,53.9082447 62.8178468,53.5718191 62.5743148,53.9082447 L66.2619681,53.9082447 Z" id="Stroke-11" stroke-linecap="round" stroke-linejoin="round"></path>
                            <path d="M50.0212766,87.1867463 C50.0212766,88.2769676 49.1782593,94 48.1382979,94 C47.0983364,94 46.2553191,88.2769676 46.2553191,87.1867463 C46.2553191,86.096525 47.0983364,85.212766 48.1382979,85.212766 C49.1782593,85.212766 50.0212766,86.096525 50.0212766,87.1867463 Z" id="Stroke-13" stroke-linecap="round" stroke-linejoin="round"></path>
                            <path d="M82.6595745,87.1867463 C82.6595745,88.2769676 81.8165572,94 80.7765957,94 C79.7366343,94 78.893617,88.2769676 78.893617,87.1867463 C78.893617,86.096525 79.7366343,85.212766 80.7765957,85.212766 C81.8165572,85.212766 82.6595745,86.096525 82.6595745,87.1867463 Z" id="Stroke-15" stroke-linecap="round" stroke-linejoin="round"></path>
                            <path d="M67.5957447,86.2134414 C67.5957447,87.4589666 66.4725644,94 65.0851064,94 C63.7002912,94 62.5744681,87.4589666 62.5744681,86.2134414 C62.5744681,84.9679162 63.7002912,83.9574468 65.0851064,83.9574468 C66.4725644,83.9574468 67.5957447,84.9679162 67.5957447,86.2134414 Z" id="Stroke-17" stroke-linecap="round" stroke-linejoin="round"></path>
                            <path d="M64.4574468,48.8085106 C62.0291765,48.8085106 60.0638298,52.2752042 60.0638298,55.5220846 L60.0638298,80.8880061 C60.0638298,81.1978634 62.0291765,81.4468085 64.4574468,81.4468085 C66.8829452,81.4468085 68.8510638,81.1978634 68.8510638,80.8880061 L68.8510638,55.5220846 C68.8510638,52.2752042 66.8829452,48.8085106 64.4574468,48.8085106 Z" id="Stroke-19" stroke-linecap="round" stroke-linejoin="round"></path>
                            <circle id="Oval-Copy-12" opacity="0.200000003" cx="65" cy="65" r="65"></circle>
                        </g>
                        <g id="support" transform="translate(20.000000, 145.000000)">
                            <path d="M36.6093951,66.6773383 C37.30092,69.1601246 38.5857532,70.6538172 40.0670196,72.1736443 L40.0670196,74.4212193 C39.4035566,76.5582249 34.1539806,79.995929 27.0122321,82.7661959 C26.4028884,83.0034176 26,83.5964718 26,84.2598884 L26,85.4017691 C26,86.2843142 26.7035514,87 27.5714653,87 L63.4285347,87 C64.2964486,87 65,86.2843142 65,85.4017691 L65,84.2598884 C65,83.5964718 64.5971116,83.0014072 63.9897723,82.7661959 C56.8480238,79.9979394 51.5984479,76.5622456 50.9329804,74.4212193 L50.9329804,72.1736443 C52.4142468,70.6538172 53.7391684,69.1581143 54.4306933,66.6773383 L54.4306933,55.5279188 C54.4306933,50.3371865 52.0915352,47 45.5010022,47 C39.0808449,47 36.6093951,50.3371865 36.6093951,55.5279188 L36.6093951,66.6773383 Z" id="Stroke-1" stroke="#FFBF3B" stroke-width="2" stroke-linecap="round" stroke-linejoin="round"></path>
                            <path d="M57,66 C57,71.0672897 53.1630744,71.8953271 47,72" id="Stroke-3" stroke="#FFBF3B" stroke-width="2" stroke-linecap="round" stroke-linejoin="round"></path>
                            <path d="M37,67 L35.207727,67 C33.9874561,67 33,66.0221781 33,64.8182474 L33,58.1817526 C33,56.9778219 33.9874561,56 35.207727,56 L37,56" id="Stroke-5" stroke="#FFBF3B" stroke-width="2" stroke-linecap="round" stroke-linejoin="round"></path>
                            <path d="M54,56 L55.792273,56 C57.0125439,56 58,56.9778219 58,58.1817526 L58,64.8182474 C58,66.0221781 57.0125439,67 55.792273,67 L54,67" id="Stroke-7" stroke="#FFBF3B" stroke-width="2" stroke-linecap="round" stroke-linejoin="round"></path>
                            <path d="M35,56 L35,52.8183673 C35,46.8428571 39.7012264,42 45.5,42 C51.2987736,42 56,46.8428571 56,52.8183673 L56,56" id="Stroke-9" stroke="#FFBF3B" stroke-width="2" stroke-linecap="round" stroke-linejoin="round"></path>
                            <path d="M47,72.5009323 C47,73.3287756 46.3287756,74 45.4990677,74 C44.6712244,74 44,73.3287756 44,72.5009323 C44,71.6730889 44.6712244,71 45.4990677,71 C46.3287756,71 47,71.6730889 47,72.5009323 Z" id="Stroke-11" stroke="#FFBF3B" stroke-width="2" stroke-linecap="round" stroke-linejoin="round"></path>
                            <circle id="Oval-Copy-16" stroke="#FFBF3B" stroke-width="2" opacity="0.200000003" cx="45" cy="65" r="45"></circle>
                            <path d="M22.730957,7.47998047 C22.730957,8.30517991 22.4326202,8.95263437 21.8359375,9.42236328 C21.2392548,9.89209219 20.4161836,10.1269531 19.3666992,10.1269531 C18.3172148,10.1269531 17.4581739,9.96403158 16.7895508,9.63818359 L16.7895508,8.20361328 C17.21273,8.4025075 17.6623511,8.55908146 18.1384277,8.67333984 C18.6145043,8.78759823 19.0577779,8.84472656 19.4682617,8.84472656 C20.0691762,8.84472656 20.5124497,8.73046989 20.7980957,8.50195312 C21.0837417,8.27343636 21.2265625,7.96663604 21.2265625,7.58154297 C21.2265625,7.23453603 21.0953789,6.94043089 20.8330078,6.69921875 C20.5706367,6.45800661 20.0289755,6.17236493 19.2080078,5.84228516 C18.3616494,5.49951 17.7649757,5.10807512 17.4179688,4.66796875 C17.0709618,4.22786238 16.8974609,3.69889632 16.8974609,3.08105469 C16.8974609,2.30663675 17.1725233,1.69726785 17.7226562,1.25292969 C18.2727892,0.808591528 19.0112258,0.586425781 19.9379883,0.586425781 C20.8266646,0.586425781 21.7110959,0.781085293 22.5913086,1.17041016 L22.1088867,2.40820312 C21.2836873,2.06119618 20.5473665,1.88769531 19.8999023,1.88769531 C19.4090145,1.88769531 19.0366224,1.99454646 18.7827148,2.20825195 C18.5288073,2.42195745 18.4018555,2.70442533 18.4018555,3.05566406 C18.4018555,3.29687621 18.4526362,3.50317297 18.5541992,3.67456055 C18.6557622,3.84594812 18.8229155,4.00781174 19.0556641,4.16015625 C19.2884126,4.31250076 19.7073537,4.51350787 20.3125,4.76318359 C20.9938185,5.04671366 21.4931625,5.31119669 21.8105469,5.55664062 C22.1279313,5.80208456 22.3606763,6.07926278 22.5087891,6.38818359 C22.6569018,6.69710441 22.730957,7.06103306 22.730957,7.47998047 Z M32.8017578,0.719726562 L32.8017578,6.72460938 C32.8017578,7.41015968 32.6547052,8.01000719 32.3605957,8.52416992 C32.0664862,9.03833265 31.6411974,9.43399927 31.0847168,9.71118164 C30.5282361,9.98836402 29.8627968,10.1269531 29.0883789,10.1269531 C27.9373315,10.1269531 27.0423209,9.82226867 26.4033203,9.21289062 C25.7643197,8.60351258 25.4448242,7.76563033 25.4448242,6.69921875 L25.4448242,0.719726562 L26.9682617,0.719726562 L26.9682617,6.59130859 C26.9682617,7.35726294 27.1459943,7.9221987 27.5014648,8.28613281 C27.8569354,8.65006692 28.4028283,8.83203125 29.1391602,8.83203125 C30.5695058,8.83203125 31.284668,8.08089944 31.284668,6.57861328 L31.284668,0.719726562 L32.8017578,0.719726562 Z M42.3203125,3.52539062 C42.3203125,4.49447099 42.0029329,5.23713935 41.3681641,5.75341797 C40.7333953,6.26969659 39.8299212,6.52783203 38.6577148,6.52783203 L37.6928711,6.52783203 L37.6928711,10 L36.1757812,10 L36.1757812,0.719726562 L38.8481445,0.719726562 C40.0076555,0.719726562 40.8762178,0.956703359 41.4538574,1.43066406 C42.031497,1.90462477 42.3203125,2.60285997 42.3203125,3.52539062 Z M37.6928711,5.25195312 L38.4990234,5.25195312 C39.2776732,5.25195312 39.8489565,5.11653781 40.2128906,4.84570312 C40.5768247,4.57486844 40.7587891,4.15169559 40.7587891,3.57617188 C40.7587891,3.04296608 40.5958675,2.6451836 40.2700195,2.3828125 C39.9441715,2.1204414 39.4363641,1.98925781 38.746582,1.98925781 L37.6928711,1.98925781 L37.6928711,5.25195312 Z M51.3183594,3.52539062 C51.3183594,4.49447099 51.0009797,5.23713935 50.3662109,5.75341797 C49.7314421,6.26969659 48.8279681,6.52783203 47.6557617,6.52783203 L46.690918,6.52783203 L46.690918,10 L45.1738281,10 L45.1738281,0.719726562 L47.8461914,0.719726562 C49.0057024,0.719726562 49.8742647,0.956703359 50.4519043,1.43066406 C51.0295439,1.90462477 51.3183594,2.60285997 51.3183594,3.52539062 Z M46.690918,5.25195312 L47.4970703,5.25195312 C48.27572,5.25195312 48.8470034,5.11653781 49.2109375,4.84570312 C49.5748716,4.57486844 49.7568359,4.15169559 49.7568359,3.57617188 C49.7568359,3.04296608 49.5939144,2.6451836 49.2680664,2.3828125 C48.9422184,2.1204414 48.434411,1.98925781 47.7446289,1.98925781 L46.690918,1.98925781 L46.690918,5.25195312 Z M62.4111328,5.34716797 C62.4111328,6.85791771 62.033451,8.03222237 61.2780762,8.87011719 C60.5227013,9.708012 59.4531319,10.1269531 58.0693359,10.1269531 C56.6686128,10.1269531 55.5926958,9.7111858 54.8415527,8.87963867 C54.0904097,8.04809155 53.7148438,6.86638136 53.7148438,5.33447266 C53.7148438,3.80256396 54.0925255,2.62614343 54.8479004,1.80517578 C55.6032753,0.984208135 56.6813081,0.573730469 58.0820312,0.573730469 C59.4615954,0.573730469 60.527991,0.990555728 61.28125,1.82421875 C62.034509,2.65788177 62.4111328,3.83218644 62.4111328,5.34716797 Z M55.3271484,5.34716797 C55.3271484,6.48975181 55.5577776,7.35619822 56.019043,7.9465332 C56.4803083,8.53686819 57.1637325,8.83203125 58.0693359,8.83203125 C58.9707076,8.83203125 59.650958,8.54004198 60.1101074,7.95605469 C60.5692569,7.37206739 60.7988281,6.50244718 60.7988281,5.34716797 C60.7988281,4.20881592 60.5713727,3.34554331 60.1164551,2.75732422 C59.6615374,2.16910513 58.9834029,1.875 58.0820312,1.875 C57.172196,1.875 56.485598,2.16910513 56.0222168,2.75732422 C55.5588356,3.34554331 55.3271484,4.20881592 55.3271484,5.34716797 Z M66.9213867,5.03613281 L67.9750977,5.03613281 C68.6818069,5.03613281 69.1938461,4.90494923 69.5112305,4.64257812 C69.8286149,4.38020702 69.9873047,3.990888 69.9873047,3.47460938 C69.9873047,2.94986717 69.8159197,2.57324333 69.4731445,2.34472656 C69.1303694,2.11620979 68.6140985,2.00195312 67.9243164,2.00195312 L66.9213867,2.00195312 L66.9213867,5.03613281 Z M66.9213867,6.29296875 L66.9213867,10 L65.4042969,10 L65.4042969,0.719726562 L68.0258789,0.719726562 C69.223476,0.719726562 70.1100232,0.944008174 70.6855469,1.39257812 C71.2610706,1.84114808 71.5488281,2.51822464 71.5488281,3.42382812 C71.5488281,4.57910734 70.9479227,5.40217854 69.7460938,5.89306641 L72.3676758,10 L70.6411133,10 L68.4194336,6.29296875 L66.9213867,6.29296875 Z M77.9189453,10 L76.4018555,10 L76.4018555,2.02099609 L73.6723633,2.02099609 L73.6723633,0.719726562 L80.6484375,0.719726562 L80.6484375,2.02099609 L77.9189453,2.02099609 L77.9189453,10 Z" id="SUPPORT" fill="#FFBF3B"></path>
                        </g>
                    </g>
                    <path d="M262.925,129.380984 C262.876,129.499979 262.803,129.610975 262.707,129.706971 L257.707,134.706762 C257.316,135.097746 256.684,135.097746 256.293,134.706762 C255.902,134.315779 255.902,133.683805 256.293,133.292821 L259.586,129.999958 L172,129.999958 C171.448,129.999958 171,129.551977 171,129 C171,128.448023 171.448,128.000042 172,128.000042 L259.586,128.000042 L256.293,124.707179 C255.902,124.316195 255.902,123.684221 256.293,123.293238 C256.684,122.902254 257.316,122.902254 257.707,123.293238 L262.707,128.293029 C262.803,128.389025 262.876,128.500021 262.925,128.619016 C262.973,128.735011 263,128.863006 263,128.997 C263,129.136994 262.973,129.264989 262.925,129.380984 Z" id="arrow" fill="#DEE3EA"></path>
                    <path d="M716.925,129.380984 C716.876,129.499979 716.803,129.610975 716.707,129.706971 L711.707,134.706762 C711.316,135.097746 710.684,135.097746 710.293,134.706762 C709.902,134.315779 709.902,133.683805 710.293,133.292821 L713.586,129.999958 L626,129.999958 C625.448,129.999958 625,129.551977 625,129 C625,128.448023 625.448,128.000042 626,128.000042 L713.586,128.000042 L710.293,124.707179 C709.902,124.316195 709.902,123.684221 710.293,123.293238 C710.684,122.902254 711.316,122.902254 711.707,123.293238 L716.707,128.293029 C716.803,128.389025 716.876,128.500021 716.925,128.619016 C716.973,128.735011 717,128.863006 717,128.997 C717,129.136994 716.973,129.264989 716.925,129.380984 Z" id="arrow" fill="#DEE3EA"></path>
                    <path d="M2.98828125,7.98144531 L4.69042969,7.98144531 C5.83203696,7.98144531 6.65917712,7.76953337 7.171875,7.34570312 C7.68457288,6.92187288 7.94091797,6.29297292 7.94091797,5.45898438 C7.94091797,4.61132389 7.66406527,4.00293153 7.11035156,3.63378906 C6.55663786,3.26464659 5.72266182,3.08007813 4.60839844,3.08007813 L2.98828125,3.08007813 L2.98828125,7.98144531 Z M2.98828125,10.0117188 L2.98828125,16 L0.537597656,16 L0.537597656,1.00878906 L4.77246094,1.00878906 C6.70704092,1.00878906 8.13915551,1.37109013 9.06884766,2.09570312 C9.9985398,2.82031612 10.4633789,3.91405519 10.4633789,5.37695312 C10.4633789,7.24317339 9.49268549,8.57274994 7.55126953,9.36572266 L11.7861328,16 L8.99707031,16 L5.40820312,10.0117188 L2.98828125,10.0117188 Z M22.4399414,16 L13.9599609,16 L13.9599609,1.00878906 L22.4399414,1.00878906 L22.4399414,3.08007812 L16.4106445,3.08007812 L16.4106445,7.16113281 L22.0605469,7.16113281 L22.0605469,9.21191406 L16.4106445,9.21191406 L16.4106445,13.918457 L22.4399414,13.918457 L22.4399414,16 Z M34.3242188,11.9291992 C34.3242188,13.2622137 33.84229,14.3081017 32.878418,15.0668945 C31.914546,15.8256874 30.5849694,16.2050781 28.8896484,16.2050781 C27.1943275,16.2050781 25.806646,15.9418972 24.7265625,15.4155273 L24.7265625,13.0981445 C25.4101597,13.4194352 26.1364708,13.6723624 26.9055176,13.8569336 C27.6745644,14.0415048 28.3906217,14.1337891 29.0537109,14.1337891 C30.0244189,14.1337891 30.7404762,13.9492206 31.2019043,13.5800781 C31.6633324,13.2109357 31.894043,12.7153351 31.894043,12.0932617 C31.894043,11.532712 31.682131,11.0576191 31.2583008,10.6679688 C30.8344705,10.2783184 29.9594793,9.8168972 28.6333008,9.28369141 C27.2661064,8.7299777 26.3022489,8.0976598 25.7416992,7.38671875 C25.1811495,6.6757777 24.9008789,5.82129405 24.9008789,4.82324219 C24.9008789,3.57225937 25.3452104,2.58789421 26.2338867,1.87011719 C27.122563,1.15234016 28.3154222,0.793457031 29.8125,0.793457031 C31.2480541,0.793457031 32.6767507,1.10790701 34.0986328,1.73681641 L33.3193359,3.73632812 C31.9863215,3.17577845 30.7968802,2.89550781 29.7509766,2.89550781 C28.9580038,2.89550781 28.3564474,3.06811351 27.9462891,3.41333008 C27.5361308,3.75854665 27.3310547,4.21484091 27.3310547,4.78222656 C27.3310547,5.17187695 27.4130851,5.50512557 27.5771484,5.78198242 C27.7412118,6.05883927 28.0112286,6.32031127 28.387207,6.56640625 C28.7631855,6.81250123 29.4399365,7.13720501 30.4174805,7.54052734 C31.5180719,7.99853745 32.3247045,8.42577927 32.8374023,8.82226562 C33.3501002,9.21875198 33.726073,9.66650141 33.965332,10.1655273 C34.204591,10.6645533 34.3242188,11.252438 34.3242188,11.9291992 Z M45.7060547,16 L37.2260742,16 L37.2260742,1.00878906 L45.7060547,1.00878906 L45.7060547,3.08007812 L39.6767578,3.08007812 L39.6767578,7.16113281 L45.3266602,7.16113281 L45.3266602,9.21191406 L39.6767578,9.21191406 L39.6767578,13.918457 L45.7060547,13.918457 L45.7060547,16 Z M58.246582,16 L56.7495117,11.8369141 L51.0175781,11.8369141 L49.5512695,16 L46.9672852,16 L52.5761719,0.947265625 L55.2421875,0.947265625 L60.8510742,16 L58.246582,16 Z M56.1035156,9.72460938 L54.6987305,5.64355469 C54.5961909,5.37011582 54.4543466,4.93945606 54.2731934,4.3515625 C54.0920401,3.76366894 53.9672855,3.33300918 53.8989258,3.05957031 C53.7143545,3.90039483 53.4443377,4.81981923 53.0888672,5.81787109 L51.7353516,9.72460938 L56.1035156,9.72460938 Z M65.2807617,7.98144531 L66.9829102,7.98144531 C68.1245174,7.98144531 68.9516576,7.76953337 69.4643555,7.34570312 C69.9770533,6.92187288 70.2333984,6.29297292 70.2333984,5.45898438 C70.2333984,4.61132389 69.9565457,4.00293153 69.402832,3.63378906 C68.8491183,3.26464659 68.0151423,3.08007813 66.9008789,3.08007813 L65.2807617,3.08007813 L65.2807617,7.98144531 Z M65.2807617,10.0117188 L65.2807617,16 L62.8300781,16 L62.8300781,1.00878906 L67.0649414,1.00878906 C68.9995214,1.00878906 70.431636,1.37109013 71.3613281,2.09570312 C72.2910203,2.82031612 72.7558594,3.91405519 72.7558594,5.37695312 C72.7558594,7.24317339 71.785166,8.57274994 69.84375,9.36572266 L74.0786133,16 L71.2895508,16 L67.7006836,10.0117188 L65.2807617,10.0117188 Z M82.6303711,2.89550781 C81.2221609,2.89550781 80.1147501,3.39452626 79.3081055,4.39257812 C78.5014608,5.39062999 78.0981445,6.76805762 78.0981445,8.52490234 C78.0981445,10.3637787 78.4860801,11.7548781 79.2619629,12.6982422 C80.0378457,13.6416063 81.1606372,14.1132812 82.6303711,14.1132812 C83.2661165,14.1132812 83.8813447,14.0500495 84.4760742,13.923584 C85.0708038,13.7971185 85.6894499,13.6347666 86.3320312,13.4365234 L86.3320312,15.5385742 C85.1562441,15.9829124 83.8232496,16.2050781 82.3330078,16.2050781 C80.1386609,16.2050781 78.4536192,15.5402899 77.277832,14.2106934 C76.1020449,12.8810969 75.5141602,10.9790163 75.5141602,8.50439453 C75.5141602,6.94579299 75.7995577,5.58203709 76.3703613,4.41308594 C76.941165,3.24413478 77.7665962,2.34863592 78.8466797,1.7265625 C79.9267632,1.10448908 81.1948169,0.793457031 82.6508789,0.793457031 C84.1821366,0.793457031 85.5971615,1.11474288 86.8959961,1.75732422 L86.0141602,3.79785156 C85.5082983,3.55859255 84.9733915,3.34838958 84.4094238,3.16723633 C83.8454562,2.98608308 83.2524445,2.89550781 82.6303711,2.89550781 Z M101.384766,16 L98.9238281,16 L98.9238281,9.24267578 L92.0126953,9.24267578 L92.0126953,16 L89.5620117,16 L89.5620117,1.00878906 L92.0126953,1.00878906 L92.0126953,7.140625 L98.9238281,7.140625 L98.9238281,1.00878906 L101.384766,1.00878906 L101.384766,16 Z M113.433105,4.23876953 C113.433105,4.66943575 113.547606,5.07616996 113.776611,5.45898437 C114.005616,5.84179879 114.325193,6.248533 114.735352,6.67919922 C115.507816,6.24169703 116.049559,5.83325385 116.360596,5.45385742 C116.671632,5.07446099 116.827148,4.64892814 116.827148,4.17724609 C116.827148,3.73290793 116.678468,3.37744274 116.381104,3.11083984 C116.083739,2.84423695 115.688967,2.7109375 115.196777,2.7109375 C114.656736,2.7109375 114.227785,2.84936385 113.909912,3.1262207 C113.592039,3.40307756 113.433105,3.77392346 113.433105,4.23876953 Z M114.960938,14.1337891 C116.21192,14.1337891 117.281734,13.7680701 118.17041,13.0366211 L114.243164,9.17089844 C113.518551,9.63574451 113.019533,10.0715312 112.746094,10.4782715 C112.472655,10.8850118 112.335938,11.3481419 112.335938,11.8676758 C112.335938,12.537601 112.573484,13.0827616 113.048584,13.5031738 C113.523684,13.9235861 114.161129,14.1337891 114.960938,14.1337891 Z M109.792969,12.0317383 C109.792969,11.136226 110.011717,10.3552279 110.449219,9.6887207 C110.886721,9.02221346 111.676264,8.36084312 112.817871,7.70458984 C112.168454,6.94579699 111.725831,6.30493426 111.48999,5.78198242 C111.254149,5.25903059 111.13623,4.71728796 111.13623,4.15673828 C111.13623,3.11767059 111.507076,2.29736629 112.248779,1.69580078 C112.990482,1.09423527 113.98681,0.793457031 115.237793,0.793457031 C116.44776,0.793457031 117.397946,1.08569044 118.088379,1.67016602 C118.778812,2.25464159 119.124023,3.04247551 119.124023,4.03369141 C119.124023,4.81299218 118.893313,5.52050463 118.431885,6.15625 C117.970457,6.79199537 117.199712,7.4277312 116.119629,8.06347656 L119.66748,11.4882812 C120.221194,10.7568323 120.682615,9.68360083 121.051758,8.26855469 L123.533203,8.26855469 C123.054685,10.2099706 122.289068,11.7924744 121.236328,13.0161133 L124.322754,16 L121.21582,16 L119.687988,14.5131836 C118.990719,15.0737333 118.247318,15.4958482 117.457764,15.779541 C116.668209,16.0632338 115.794927,16.2050781 114.837891,16.2050781 C113.265617,16.2050781 112.031743,15.8325233 111.13623,15.0874023 C110.240718,14.3422814 109.792969,13.3237369 109.792969,12.0317383 Z M141.713379,5.54101562 C141.713379,7.10645314 141.200689,8.30614817 140.175293,9.14013672 C139.149897,9.97412526 137.690439,10.3911133 135.796875,10.3911133 L134.238281,10.3911133 L134.238281,16 L131.787598,16 L131.787598,1.00878906 L136.104492,1.00878906 C137.977548,1.00878906 139.380611,1.39159773 140.313721,2.15722656 C141.246831,2.92285539 141.713379,4.0507738 141.713379,5.54101562 Z M134.238281,8.33007812 L135.540527,8.33007812 C136.798346,8.33007812 137.721188,8.11133031 138.309082,7.67382812 C138.896976,7.23632594 139.190918,6.55273902 139.190918,5.62304688 C139.190918,4.76171444 138.927737,4.11914274 138.401367,3.6953125 C137.874997,3.27148226 137.054693,3.05957031 135.94043,3.05957031 L134.238281,3.05957031 L134.238281,8.33007812 Z M144.70752,16 L144.70752,1.00878906 L147.158203,1.00878906 L147.158203,13.8979492 L153.505371,13.8979492 L153.505371,16 L144.70752,16 Z M165.389648,16 L163.892578,11.8369141 L158.160645,11.8369141 L156.694336,16 L154.110352,16 L159.719238,0.947265625 L162.385254,0.947265625 L167.994141,16 L165.389648,16 Z M163.246582,9.72460938 L161.841797,5.64355469 C161.739257,5.37011582 161.597413,4.93945606 161.41626,4.3515625 C161.235107,3.76366894 161.110352,3.33300918 161.041992,3.05957031 C160.857421,3.90039483 160.587404,4.81981923 160.231934,5.81787109 L158.878418,9.72460938 L163.246582,9.72460938 Z M182.462402,16 L179.458008,16 L172.085449,4.05419922 L172.003418,4.05419922 L172.054688,4.72070312 C172.150391,5.99219386 172.198242,7.15429161 172.198242,8.20703125 L172.198242,16 L169.973145,16 L169.973145,1.00878906 L172.946777,1.00878906 L180.298828,12.8930664 L180.360352,12.8930664 C180.34668,12.7358391 180.319336,12.163335 180.27832,11.1755371 C180.237304,10.1877392 180.216797,9.41699496 180.216797,8.86328125 L180.216797,1.00878906 L182.462402,1.00878906 L182.462402,16 Z" id="RESEARCH-&amp;-PLAN" fill="#2D80F3"></path>
                    <path d="M348.141602,16 L346.644531,11.8369141 L340.912598,11.8369141 L339.446289,16 L336.862305,16 L342.471191,0.947265625 L345.137207,0.947265625 L350.746094,16 L348.141602,16 Z M345.998535,9.72460938 L344.59375,5.64355469 C344.49121,5.37011582 344.349366,4.93945606 344.168213,4.3515625 C343.98706,3.76366894 343.862305,3.33300918 343.793945,3.05957031 C343.609374,3.90039483 343.339357,4.81981923 342.983887,5.81787109 L341.630371,9.72460938 L345.998535,9.72460938 Z M358.856934,7.86865234 L364.373535,7.86865234 L364.373535,15.3950195 C363.471187,15.6889663 362.60474,15.8974603 361.77417,16.0205078 C360.943599,16.1435553 360.046392,16.2050781 359.08252,16.2050781 C356.812977,16.2050781 355.062994,15.533454 353.83252,14.1901855 C352.602045,12.8469171 351.986816,10.9516724 351.986816,8.50439453 C351.986816,6.09129653 352.680657,4.20288768 354.068359,2.83911133 C355.456062,1.47533498 357.366687,0.793457031 359.800293,0.793457031 C361.36573,0.793457031 362.849114,1.09423527 364.250488,1.69580078 L363.38916,3.73632812 C362.172357,3.17577845 360.955572,2.89550781 359.73877,2.89550781 C358.139152,2.89550781 356.874516,3.39794419 355.944824,4.40283203 C355.015132,5.40771987 354.550293,6.78172957 354.550293,8.52490234 C354.550293,10.3569428 354.96899,11.7497511 355.806396,12.7033691 C356.643803,13.6569872 357.848625,14.1337891 359.420898,14.1337891 C360.213871,14.1337891 361.061519,14.034669 361.963867,13.8364258 L361.963867,9.97070312 L358.856934,9.97070312 L358.856934,7.86865234 Z M367.972656,16 L367.972656,1.00878906 L370.42334,1.00878906 L370.42334,16 L367.972656,16 Z M374.381348,16 L374.381348,1.00878906 L376.832031,1.00878906 L376.832031,13.8979492 L383.179199,13.8979492 L383.179199,16 L374.381348,16 Z M394.243164,16 L385.763184,16 L385.763184,1.00878906 L394.243164,1.00878906 L394.243164,3.08007812 L388.213867,3.08007812 L388.213867,7.16113281 L393.86377,7.16113281 L393.86377,9.21191406 L388.213867,9.21191406 L388.213867,13.918457 L394.243164,13.918457 L394.243164,16 Z M415.130371,8.36083984 C415.130371,10.8354616 414.443366,12.7272884 413.069336,14.036377 C411.695306,15.3454655 409.716322,16 407.132324,16 L402.938477,16 L402.938477,1.00878906 L407.573242,1.00878906 C409.958996,1.00878906 411.814935,1.65136076 413.141113,2.93652344 C414.467292,4.22168611 415.130371,6.0297735 415.130371,8.36083984 Z M412.546387,8.44287109 C412.546387,4.85398596 410.868181,3.05957031 407.511719,3.05957031 L405.38916,3.05957031 L405.38916,13.9389648 L407.132324,13.9389648 C410.741717,13.9389648 412.546387,12.1069519 412.546387,8.44287109 Z M426.830078,16 L418.350098,16 L418.350098,1.00878906 L426.830078,1.00878906 L426.830078,3.08007812 L420.800781,3.08007812 L420.800781,7.16113281 L426.450684,7.16113281 L426.450684,9.21191406 L420.800781,9.21191406 L420.800781,13.918457 L426.830078,13.918457 L426.830078,16 Z M438.611816,1.00878906 L441.154785,1.00878906 L435.904785,16 L433.320801,16 L428.091309,1.00878906 L430.61377,1.00878906 L433.741211,10.3295898 C433.905274,10.773928 434.079589,11.346432 434.26416,12.0471191 C434.448731,12.7478062 434.568359,13.2690413 434.623047,13.6108398 C434.711915,13.091306 434.848632,12.4897495 435.033203,11.8061523 C435.217774,11.1225552 435.368163,10.6167009 435.484375,10.2885742 L438.611816,1.00878906 Z M451.61377,16 L443.133789,16 L443.133789,1.00878906 L451.61377,1.00878906 L451.61377,3.08007812 L445.584473,3.08007812 L445.584473,7.16113281 L451.234375,7.16113281 L451.234375,9.21191406 L445.584473,9.21191406 L445.584473,13.918457 L451.61377,13.918457 L451.61377,16 Z M454.854004,16 L454.854004,1.00878906 L457.304688,1.00878906 L457.304688,13.8979492 L463.651855,13.8979492 L463.651855,16 L454.854004,16 Z M479.54541,8.48388672 C479.54541,10.9243286 478.935309,12.8212823 477.715088,14.1748047 C476.494867,15.5283271 474.767101,16.2050781 472.531738,16.2050781 C470.269032,16.2050781 468.531012,15.533454 467.317627,14.1901855 C466.104242,12.8469171 465.497559,10.9380007 465.497559,8.46337891 C465.497559,5.98875716 466.10766,4.08838554 467.327881,2.76220703 C468.548102,1.43602853 470.289539,0.772949219 472.552246,0.772949219 C474.780773,0.772949219 476.503412,1.44628233 477.720215,2.79296875 C478.937018,4.13965517 479.54541,6.03660886 479.54541,8.48388672 Z M468.102051,8.48388672 C468.102051,10.3295991 468.474606,11.7292433 469.219727,12.6828613 C469.964847,13.6364794 471.06884,14.1132812 472.531738,14.1132812 C473.9878,14.1132812 475.086666,13.6416063 475.828369,12.6982422 C476.570072,11.7548781 476.940918,10.350107 476.940918,8.48388672 C476.940918,6.64501034 476.57349,5.25049303 475.838623,4.30029297 C475.103756,3.35009291 474.008308,2.875 472.552246,2.875 C471.082512,2.875 469.973392,3.35009291 469.224854,4.30029297 C468.476315,5.25049303 468.102051,6.64501034 468.102051,8.48388672 Z M492.690918,5.54101562 C492.690918,7.10645314 492.178228,8.30614817 491.152832,9.14013672 C490.127436,9.97412526 488.667978,10.3911133 486.774414,10.3911133 L485.21582,10.3911133 L485.21582,16 L482.765137,16 L482.765137,1.00878906 L487.082031,1.00878906 C488.955087,1.00878906 490.35815,1.39159773 491.29126,2.15722656 C492.22437,2.92285539 492.690918,4.0507738 492.690918,5.54101562 Z M485.21582,8.33007812 L486.518066,8.33007812 C487.775885,8.33007812 488.698728,8.11133031 489.286621,7.67382812 C489.874515,7.23632594 490.168457,6.55273902 490.168457,5.62304688 C490.168457,4.76171444 489.905276,4.11914274 489.378906,3.6953125 C488.852536,3.27148226 488.032232,3.05957031 486.917969,3.05957031 L485.21582,3.05957031 L485.21582,8.33007812 Z M502.165527,16 L497.817871,3.47998047 L497.73584,3.47998047 C497.852051,5.33936477 497.910156,7.0825114 497.910156,8.70947266 L497.910156,16 L495.685059,16 L495.685059,1.00878906 L499.140625,1.00878906 L503.303711,12.934082 L503.365234,12.934082 L507.651367,1.00878906 L511.117188,1.00878906 L511.117188,16 L508.758789,16 L508.758789,8.58642578 C508.758789,7.84130487 508.777588,6.87061145 508.815186,5.67431641 C508.852783,4.47802136 508.885254,3.75341923 508.912598,3.50048828 L508.830566,3.50048828 L504.329102,16 L502.165527,16 Z M523.544922,16 L515.064941,16 L515.064941,1.00878906 L523.544922,1.00878906 L523.544922,3.08007812 L517.515625,3.08007812 L517.515625,7.16113281 L523.165527,7.16113281 L523.165527,9.21191406 L517.515625,9.21191406 L517.515625,13.918457 L523.544922,13.918457 L523.544922,16 Z M539.274414,16 L536.27002,16 L528.897461,4.05419922 L528.81543,4.05419922 L528.866699,4.72070312 C528.962403,5.99219386 529.010254,7.15429161 529.010254,8.20703125 L529.010254,16 L526.785156,16 L526.785156,1.00878906 L529.758789,1.00878906 L537.11084,12.8930664 L537.172363,12.8930664 C537.158691,12.7358391 537.131348,12.163335 537.090332,11.1755371 C537.049316,10.1877392 537.028809,9.41699496 537.028809,8.86328125 L537.028809,1.00878906 L539.274414,1.00878906 L539.274414,16 Z M548.410645,16 L545.959961,16 L545.959961,3.11083984 L541.550781,3.11083984 L541.550781,1.00878906 L552.819824,1.00878906 L552.819824,3.11083984 L548.410645,3.11083984 L548.410645,16 Z" id="AGILE-DEVELOPMENT-Copy" fill="#613FFF"></path>
                    <path d="M715.456299,5.54101562 C715.456299,7.10645314 714.943609,8.30614817 713.918213,9.14013672 C712.892817,9.97412526 711.433359,10.3911133 709.539795,10.3911133 L707.981201,10.3911133 L707.981201,16 L705.530518,16 L705.530518,1.00878906 L709.847412,1.00878906 C711.720468,1.00878906 713.12353,1.39159773 714.056641,2.15722656 C714.989751,2.92285539 715.456299,4.0507738 715.456299,5.54101562 Z M707.981201,8.33007812 L709.283447,8.33007812 C710.541266,8.33007812 711.464108,8.11133031 712.052002,7.67382812 C712.639896,7.23632594 712.933838,6.55273902 712.933838,5.62304688 C712.933838,4.76171444 712.670657,4.11914274 712.144287,3.6953125 C711.617917,3.27148226 710.797613,3.05957031 709.68335,3.05957031 L707.981201,3.05957031 L707.981201,8.33007812 Z M720.901123,7.98144531 L722.603271,7.98144531 C723.744879,7.98144531 724.572019,7.76953337 725.084717,7.34570312 C725.597415,6.92187288 725.85376,6.29297292 725.85376,5.45898438 C725.85376,4.61132389 725.576907,4.00293153 725.023193,3.63378906 C724.46948,3.26464659 723.635504,3.08007812 722.52124,3.08007812 L720.901123,3.08007812 L720.901123,7.98144531 Z M720.901123,10.0117188 L720.901123,16 L718.450439,16 L718.450439,1.00878906 L722.685303,1.00878906 C724.619883,1.00878906 726.051997,1.37109013 726.981689,2.09570312 C727.911382,2.82031612 728.376221,3.91405519 728.376221,5.37695312 C728.376221,7.24317339 727.405527,8.57274994 725.464111,9.36572266 L729.698975,16 L726.909912,16 L723.321045,10.0117188 L720.901123,10.0117188 Z M745.182373,8.48388672 C745.182373,10.9243286 744.572272,12.8212823 743.352051,14.1748047 C742.13183,15.5283271 740.404064,16.2050781 738.168701,16.2050781 C735.905995,16.2050781 734.167975,15.533454 732.95459,14.1901855 C731.741205,12.8469171 731.134521,10.9380007 731.134521,8.46337891 C731.134521,5.98875716 731.744623,4.08838554 732.964844,2.76220703 C734.185065,1.43602853 735.926502,0.772949219 738.189209,0.772949219 C740.417736,0.772949219 742.140375,1.44628233 743.357178,2.79296875 C744.573981,4.13965517 745.182373,6.03660886 745.182373,8.48388672 Z M733.739014,8.48388672 C733.739014,10.3295991 734.111569,11.7292433 734.856689,12.6828613 C735.60181,13.6364794 736.705803,14.1132812 738.168701,14.1132812 C739.624763,14.1132812 740.723629,13.6416063 741.465332,12.6982422 C742.207035,11.7548781 742.577881,10.350107 742.577881,8.48388672 C742.577881,6.64501034 742.210453,5.25049303 741.475586,4.30029297 C740.740719,3.35009291 739.645271,2.875 738.189209,2.875 C736.719475,2.875 735.610355,3.35009291 734.861816,4.30029297 C734.113278,5.25049303 733.739014,6.64501034 733.739014,8.48388672 Z M760.593994,8.36083984 C760.593994,10.8354616 759.906989,12.7272884 758.532959,14.036377 C757.158929,15.3454655 755.179945,16 752.595947,16 L748.4021,16 L748.4021,1.00878906 L753.036865,1.00878906 C755.422619,1.00878906 757.278558,1.65136076 758.604736,2.93652344 C759.930915,4.22168611 760.593994,6.0297735 760.593994,8.36083984 Z M758.01001,8.44287109 C758.01001,4.85398596 756.331804,3.05957031 752.975342,3.05957031 L750.852783,3.05957031 L750.852783,13.9389648 L752.595947,13.9389648 C756.20534,13.9389648 758.01001,12.1069519 758.01001,8.44287109 Z M775.564697,1.00878906 L775.564697,10.7089844 C775.564697,11.8164118 775.327151,12.7853962 774.852051,13.6159668 C774.376951,14.4465374 773.689946,15.0856911 772.791016,15.5334473 C771.892085,15.9812034 770.817145,16.2050781 769.566162,16.2050781 C767.706778,16.2050781 766.260991,15.7128955 765.22876,14.7285156 C764.196528,13.7441357 763.68042,12.3906336 763.68042,10.6679688 L763.68042,1.00878906 L766.141357,1.00878906 L766.141357,10.4936523 C766.141357,11.7309632 766.428464,12.6435517 767.002686,13.2314453 C767.576907,13.8193389 768.458734,14.1132813 769.648193,14.1132813 C771.958752,14.1132813 773.114014,12.8999145 773.114014,10.4731445 L773.114014,1.00878906 L775.564697,1.00878906 Z M785.777588,2.89550781 C784.369378,2.89550781 783.261967,3.39452626 782.455322,4.39257812 C781.648678,5.39062999 781.245361,6.76805762 781.245361,8.52490234 C781.245361,10.3637787 781.633297,11.7548781 782.40918,12.6982422 C783.185062,13.6416063 784.307854,14.1132812 785.777588,14.1132812 C786.413333,14.1132812 787.028561,14.0500495 787.623291,13.923584 C788.218021,13.7971185 788.836667,13.6347666 789.479248,13.4365234 L789.479248,15.5385742 C788.303461,15.9829124 786.970466,16.2050781 785.480225,16.2050781 C783.285878,16.2050781 781.600836,15.5402899 780.425049,14.2106934 C779.249262,12.8810969 778.661377,10.9790163 778.661377,8.50439453 C778.661377,6.94579299 778.946774,5.58203709 779.517578,4.41308594 C780.088382,3.24413478 780.913813,2.34863592 781.993896,1.7265625 C783.07398,1.10448908 784.342034,0.793457031 785.798096,0.793457031 C787.329353,0.793457031 788.744378,1.11474288 790.043213,1.75732422 L789.161377,3.79785156 C788.655515,3.55859255 788.120608,3.34838958 787.556641,3.16723633 C786.992673,2.98608308 786.399661,2.89550781 785.777588,2.89550781 Z M797.887451,16 L795.436768,16 L795.436768,3.11083984 L791.027588,3.11083984 L791.027588,1.00878906 L802.296631,1.00878906 L802.296631,3.11083984 L797.887451,3.11083984 L797.887451,16 Z M810.048584,16 L810.048584,1.00878906 L812.499268,1.00878906 L812.499268,13.8979492 L818.846436,13.8979492 L818.846436,16 L810.048584,16 Z M830.730713,16 L829.233643,11.8369141 L823.501709,11.8369141 L822.0354,16 L819.451416,16 L825.060303,0.947265625 L827.726318,0.947265625 L833.335205,16 L830.730713,16 Z M828.587646,9.72460938 L827.182861,5.64355469 C827.080322,5.37011582 826.938477,4.93945606 826.757324,4.3515625 C826.576171,3.76366894 826.451416,3.33300918 826.383057,3.05957031 C826.198485,3.90039483 825.928469,4.81981923 825.572998,5.81787109 L824.219482,9.72460938 L828.587646,9.72460938 Z M847.065186,1.00878906 L847.065186,10.7089844 C847.065186,11.8164118 846.827639,12.7853962 846.352539,13.6159668 C845.877439,14.4465374 845.190434,15.0856911 844.291504,15.5334473 C843.392574,15.9812034 842.317633,16.2050781 841.06665,16.2050781 C839.207266,16.2050781 837.76148,15.7128955 836.729248,14.7285156 C835.697016,13.7441357 835.180908,12.3906336 835.180908,10.6679688 L835.180908,1.00878906 L837.641846,1.00878906 L837.641846,10.4936523 C837.641846,11.7309632 837.928952,12.6435517 838.503174,13.2314453 C839.077395,13.8193389 839.959223,14.1132813 841.148682,14.1132813 C843.45924,14.1132813 844.614502,12.8999145 844.614502,10.4731445 L844.614502,1.00878906 L847.065186,1.00878906 Z M863.389404,16 L860.38501,16 L853.012451,4.05419922 L852.93042,4.05419922 L852.981689,4.72070312 C853.077393,5.99219386 853.125244,7.15429161 853.125244,8.20703125 L853.125244,16 L850.900146,16 L850.900146,1.00878906 L853.873779,1.00878906 L861.22583,12.8930664 L861.287354,12.8930664 C861.273682,12.7358391 861.246338,12.163335 861.205322,11.1755371 C861.164306,10.1877392 861.143799,9.41699496 861.143799,8.86328125 L861.143799,1.00878906 L863.389404,1.00878906 L863.389404,16 Z M873.725342,2.89550781 C872.317132,2.89550781 871.209721,3.39452626 870.403076,4.39257812 C869.596432,5.39062999 869.193115,6.76805762 869.193115,8.52490234 C869.193115,10.3637787 869.581051,11.7548781 870.356934,12.6982422 C871.132816,13.6416063 872.255608,14.1132812 873.725342,14.1132812 C874.361087,14.1132812 874.976315,14.0500495 875.571045,13.923584 C876.165774,13.7971185 876.784421,13.6347666 877.427002,13.4365234 L877.427002,15.5385742 C876.251215,15.9829124 874.91822,16.2050781 873.427979,16.2050781 C871.233632,16.2050781 869.54859,15.5402899 868.372803,14.2106934 C867.197016,12.8810969 866.609131,10.9790163 866.609131,8.50439453 C866.609131,6.94579299 866.894528,5.58203709 867.465332,4.41308594 C868.036136,3.24413478 868.861567,2.34863592 869.94165,1.7265625 C871.021734,1.10448908 872.289788,0.793457031 873.74585,0.793457031 C875.277107,0.793457031 876.692132,1.11474288 877.990967,1.75732422 L877.109131,3.79785156 C876.603269,3.55859255 876.068362,3.34838958 875.504395,3.16723633 C874.940427,2.98608308 874.347415,2.89550781 873.725342,2.89550781 Z M892.479736,16 L890.018799,16 L890.018799,9.24267578 L883.107666,9.24267578 L883.107666,16 L880.656982,16 L880.656982,1.00878906 L883.107666,1.00878906 L883.107666,7.140625 L890.018799,7.140625 L890.018799,1.00878906 L892.479736,1.00878906 L892.479736,16 Z" id="PRODUCT-LAUNCH" fill="#FFBF3B"></path>
                    <g id="research-&amp;-plan" transform="translate(26.000000, 65.000000)" stroke="#2D80F3" stroke-width="2">
                        <circle id="Oval-Copy-11" opacity="0.200000003" cx="65" cy="65" r="65"></circle>
                        <path d="M41.68228,55.6268 L49.57468,47.5556" id="Stroke-1" stroke-linecap="round" stroke-linejoin="round"></path>
                        <path d="M46.0108,60.05312 L49.168,56.82512" id="Stroke-2" stroke-linecap="round" stroke-linejoin="round"></path>
                        <path d="M69.99028,84.57248 L73.14748,81.34448" id="Stroke-3" stroke-linecap="round" stroke-linejoin="round"></path>
                        <path d="M74.50204,89.18612 L82.39564,81.11492" id="Stroke-4" stroke-linecap="round" stroke-linejoin="round"></path>
                        <path d="M43.72012,74.25752 C43.56172,74.41952 37.30492,90.70592 37.30492,90.70592 C36.76852,92.02832 38.21092,93.65072 39.61132,93.06512 C39.61132,93.06512 55.62172,86.74832 55.78012,86.58632" id="Stroke-5" stroke-linecap="round" stroke-linejoin="round"></path>
                        <path d="M39.7372,84.39236 L45.8176,90.60956" id="Stroke-7" stroke-linecap="round" stroke-linejoin="round"></path>
                        <path d="M90.55312,43.98908 L84.94432,38.25428 C83.25592,36.52748 80.51872,36.52748 78.83032,38.25428 L43.67032,74.20508 L55.83112,86.63828 L90.55312,51.13388 C92.48272,49.16108 92.48272,45.96188 90.55312,43.98908 Z" id="Stroke-9" stroke-linecap="round" stroke-linejoin="round"></path>
                        <polyline id="Stroke-11" stroke-linecap="round" stroke-linejoin="round" points="62.99476 47.9996 51.45556 36.2 37.00036 50.9816 48.53956 62.78"></polyline>
                        <polyline id="Stroke-13" stroke-linecap="round" stroke-linejoin="round" points="67.03276 81.68996 78.94516 93.86996 93.40036 79.08956 81.48796 66.90836"></polyline>
                        <path d="M50.61928,81.30956 L79.28128,52.00196" id="Stroke-15" stroke-linecap="round" stroke-linejoin="round"></path>
                    </g>
                </g>
            </g>
        </g>
    </g>
</svg>